<svg xmlns="http://www.w3.org/2000/svg" xmlns:xlink="http://www.w3.org/1999/xlink" width="500" zoomAndPan="magnify" viewBox="0 0 375 374.999991" height="500" preserveAspectRatio="xMidYMid meet" version="1.0"><defs><clipPath id="ae80d58abe"><path d="M 56.25 49 L 132 49 L 132 126 L 56.25 126 Z M 56.25 49 " clip-rule="nonzero"/></clipPath><clipPath id="865a03399d"><path d="M 242 36 L 318.75 36 L 318.75 113 L 242 113 Z M 242 36 " clip-rule="nonzero"/></clipPath><clipPath id="5c1bc6ed9e"><path d="M 230 12 L 318.75 12 L 318.75 89 L 230 89 Z M 230 12 " clip-rule="nonzero"/></clipPath><clipPath id="4104f7c9f8"><path d="M 56.25 37 L 107 37 L 107 51 L 56.25 51 Z M 56.25 37 " clip-rule="nonzero"/></clipPath></defs><path fill="#fe6a0a" d="M 118.570312 262.421875 C 114.980469 262.421875 111.378906 262.382812 107.792969 262.421875 C 106.808594 262.421875 106.359375 262.253906 106.371094 261.117188 C 106.429688 244.851562 106.441406 228.589844 106.457031 212.316406 C 107.160156 211.613281 108.074219 211.667969 108.945312 211.652344 C 111.058594 211.625 113.152344 211.652344 115.261719 211.640625 C 117.78125 211.613281 117.949219 211.472656 117.964844 209.007812 C 117.992188 202.832031 117.964844 196.65625 117.976562 190.480469 C 117.976562 189.414062 117.835938 188.289062 118.539062 187.34375 C 119.175781 186.867188 119.917969 186.824219 120.664062 186.824219 C 128.359375 186.824219 136.039062 186.726562 143.734375 186.867188 C 146.859375 186.78125 149.96875 186.867188 153.089844 186.824219 C 155.242188 186.796875 155.410156 186.628906 155.441406 184.503906 C 155.46875 182.195312 155.441406 179.890625 155.453125 177.582031 C 155.453125 176.640625 155.382812 175.667969 155.988281 174.839844 C 156.777344 174.148438 157.746094 174.21875 158.691406 174.21875 C 160.984375 174.191406 163.289062 174.21875 165.582031 174.207031 C 167.917969 174.179688 168.058594 174.023438 168.085938 171.632812 C 168.101562 169.605469 168.03125 167.582031 168.113281 165.554688 C 168.183594 163.921875 167.566406 163.21875 165.890625 163.261719 C 163.527344 163.332031 161.164062 163.289062 158.800781 163.261719 C 157.859375 163.261719 156.890625 163.332031 156.074219 162.699219 C 155.792969 162.390625 155.59375 162.007812 155.59375 161.601562 C 155.496094 157.832031 155.199219 154.0625 155.761719 150.304688 C 155.875 150.050781 156.058594 149.871094 156.285156 149.714844 C 158.589844 149.011719 160.96875 149.449219 163.316406 149.363281 C 165.132812 149.308594 166.960938 149.292969 168.777344 149.390625 C 172.996094 149.308594 177.214844 149.308594 181.4375 149.390625 C 187.402344 149.25 193.367188 149.335938 199.332031 149.335938 C 212.960938 149.320312 226.578125 149.335938 240.210938 149.335938 C 241.421875 149.335938 242.671875 149.136719 243.742188 149.96875 L 243.714844 149.941406 C 244.320312 150.683594 244.320312 151.570312 244.332031 152.457031 C 244.347656 154.625 244.332031 156.804688 244.332031 158.972656 C 244.332031 161.910156 244.390625 161.96875 247.246094 161.96875 C 249.410156 161.96875 251.589844 161.953125 253.757812 161.96875 C 254.628906 161.96875 255.542969 161.910156 256.246094 162.585938 C 256.277344 166.171875 256.332031 169.761719 256.289062 173.347656 C 256.277344 174.488281 256.570312 174.867188 257.753906 174.839844 C 260.863281 174.753906 263.984375 174.867188 267.09375 174.78125 C 268.277344 174.753906 268.585938 175.132812 268.558594 176.273438 C 268.472656 180.003906 268.488281 183.714844 268.472656 187.445312 C 267.839844 188.078125 267.007812 188.078125 266.207031 188.078125 C 262.914062 188.078125 259.636719 188.148438 256.347656 188.046875 C 253.097656 188.160156 249.832031 188.117188 246.582031 188.078125 C 244.910156 188.046875 244.320312 188.722656 244.320312 190.371094 C 244.347656 196.671875 244.347656 202.972656 244.320312 209.277344 C 244.320312 212.539062 243.9375 212.90625 240.71875 212.933594 C 238.746094 212.960938 236.792969 212.933594 234.824219 212.933594 C 231.785156 212.949219 231.726562 213.003906 231.699219 215.957031 C 231.671875 218.941406 231.757812 221.921875 231.65625 224.90625 C 231.742188 229.125 231.742188 233.332031 231.65625 237.550781 C 231.769531 240.871094 231.742188 244.191406 231.6875 247.527344 C 231.644531 249.847656 231.125 250.3125 228.730469 250.410156 C 227.789062 250.453125 226.832031 250.367188 225.890625 250.4375 C 223.894531 250.59375 221.386719 249.550781 220.011719 251 C 218.660156 252.421875 219.546875 254.898438 219.519531 256.910156 C 219.449219 261.71875 219.488281 266.546875 219.488281 271.355469 C 219.488281 272.03125 219.476562 272.707031 219.449219 273.394531 C 219.390625 274.886719 218.601562 275.605469 217.140625 275.648438 C 214.636719 275.71875 212.117188 275.648438 209.613281 275.6875 C 207.054688 275.71875 206.886719 275.871094 206.871094 278.503906 C 206.84375 284.539062 206.871094 290.574219 206.871094 296.609375 C 206.871094 300.195312 206.519531 300.503906 202.875 300.53125 C 200.78125 300.53125 198.667969 300.574219 196.574219 300.53125 C 194.941406 300.492188 194.222656 301.136719 194.253906 302.796875 C 194.292969 305.230469 194.308594 307.679688 194.238281 310.125 C 194.167969 312.589844 193.660156 313.136719 191.199219 313.152344 C 176.148438 313.207031 161.082031 313.191406 146.027344 313.152344 C 145.285156 313.152344 144.523438 313.121094 143.875 312.660156 C 143.117188 311.730469 143.273438 310.605469 143.257812 309.535156 C 143.230469 303.304688 143.257812 297.070312 143.257812 290.824219 C 143.257812 287.984375 143.160156 287.914062 140.261719 287.898438 C 138.09375 287.898438 135.929688 287.898438 133.761719 287.898438 C 132.875 287.898438 131.988281 287.886719 131.257812 287.28125 L 131.285156 287.308594 C 130.539062 286.378906 130.667969 285.269531 130.667969 284.199219 C 130.652344 278.050781 130.667969 271.90625 130.667969 265.757812 C 130.667969 263.238281 130.511719 263.097656 128.050781 263.085938 C 125.828125 263.058594 123.589844 263.085938 121.355469 263.085938 C 120.410156 263.085938 119.441406 263.113281 118.652344 262.453125 Z M 118.570312 262.421875 " fill-opacity="1" fill-rule="nonzero"/><path fill="#41860d" d="M 193.605469 12.683594 C 197.066406 12.683594 200.527344 12.835938 203.972656 12.65625 C 205.941406 12.554688 206.222656 13.257812 206.222656 15.003906 C 206.167969 42.605469 206.183594 70.191406 206.183594 97.792969 C 206.183594 98.464844 206.183594 99.140625 206.195312 99.832031 C 206.84375 100.632812 206.800781 101.589844 206.816406 102.53125 C 206.828125 104.894531 206.871094 107.246094 206.816406 109.609375 C 206.757812 111.238281 207.347656 111.941406 209.039062 111.886719 C 211.386719 111.816406 213.75 111.84375 216.113281 111.886719 C 217.054688 111.886719 218.011719 111.816406 218.84375 112.4375 C 219.136719 112.730469 219.335938 113.109375 219.347656 113.519531 C 219.460938 117.289062 219.742188 121.074219 219.195312 124.828125 C 219.082031 125.066406 218.914062 125.265625 218.703125 125.40625 C 216.660156 126.109375 214.539062 125.671875 212.457031 125.773438 C 211.300781 125.828125 210.148438 125.828125 209.007812 125.773438 C 207.476562 125.703125 206.800781 126.335938 206.828125 127.910156 C 206.886719 130.21875 206.855469 132.511719 206.828125 134.816406 C 206.828125 135.757812 206.914062 136.730469 206.222656 137.53125 C 205.519531 138.011719 204.703125 138.011719 203.886719 138.023438 C 201.132812 138.039062 198.375 138.050781 195.632812 138.023438 C 194.886719 138.023438 194.152344 137.980469 193.507812 137.519531 C 192.945312 136.855469 192.929688 136.027344 192.929688 135.226562 C 192.929688 131.863281 192.84375 128.515625 192.957031 125.152344 C 192.875 112.71875 192.859375 100.265625 192.957031 87.832031 C 192.875 85.269531 192.945312 82.695312 192.914062 80.121094 C 192.875 75.226562 193.367188 75.746094 188.398438 75.707031 C 186.839844 75.707031 185.292969 75.71875 183.730469 75.707031 C 182.859375 75.691406 181.957031 75.746094 181.210938 75.144531 C 180.523438 74.101562 180.691406 72.933594 180.691406 71.792969 C 180.675781 61.652344 180.691406 51.496094 180.691406 41.351562 C 180.691406 38.355469 180.605469 38.273438 177.636719 38.257812 C 175.472656 38.257812 173.304688 38.273438 171.140625 38.257812 C 170.265625 38.257812 169.367188 38.285156 168.605469 37.695312 C 168.128906 37.0625 168.074219 36.316406 168.074219 35.570312 C 168.03125 28.71875 168.042969 21.882812 168.074219 15.03125 C 168.074219 14.214844 168.144531 13.398438 168.707031 12.726562 C 169.507812 12.078125 170.464844 12.105469 171.40625 12.105469 C 177.90625 12.105469 184.417969 12.105469 190.917969 12.105469 C 191.859375 12.105469 192.832031 12.09375 193.632812 12.753906 Z M 193.605469 12.683594 " fill-opacity="1" fill-rule="nonzero"/><g clip-path="url(#ae80d58abe)"><path fill="#41860d" d="M 106.429688 125.097656 C 106.429688 121.566406 106.289062 118.035156 106.441406 114.519531 C 106.527344 112.730469 105.921875 112.394531 104.289062 112.476562 C 101.378906 112.617188 98.453125 112.4375 95.539062 112.546875 C 94.160156 112.605469 93.667969 112.28125 93.726562 110.804688 C 93.851562 107.625 93.726562 104.429688 93.78125 101.238281 C 93.796875 100.195312 93.515625 99.84375 92.433594 99.859375 C 89.183594 99.929688 85.917969 99.816406 82.667969 99.914062 C 81.386719 99.957031 81.066406 99.5625 81.105469 98.324219 C 81.191406 95.34375 81.050781 92.347656 81.175781 89.378906 C 81.234375 87.886719 80.726562 87.578125 79.347656 87.632812 C 76.507812 87.746094 73.652344 87.59375 70.808594 87.703125 C 69.359375 87.761719 68.796875 87.480469 68.867188 85.863281 C 69.023438 82.753906 68.867188 79.617188 68.9375 76.507812 C 68.96875 75.382812 68.671875 74.988281 67.488281 75.015625 C 64.242188 75.101562 60.976562 75.015625 57.726562 75.058594 C 56.796875 75.058594 56.25 75.015625 56.265625 73.804688 C 56.335938 65.941406 56.335938 58.078125 56.363281 50.199219 C 57.121094 49.457031 58.105469 49.539062 59.050781 49.539062 C 73.945312 49.527344 88.84375 49.527344 103.726562 49.539062 C 104.671875 49.539062 105.640625 49.511719 106.429688 50.171875 C 107.089844 50.960938 107.035156 51.917969 107.046875 52.859375 C 107.074219 55.351562 107.046875 57.855469 107.046875 60.34375 C 107.046875 61.609375 107.597656 62.171875 108.875 62.171875 C 111.238281 62.171875 113.601562 62.160156 115.953125 62.171875 C 116.894531 62.171875 117.851562 62.128906 118.652344 62.792969 C 119.003906 63.214844 119.214844 63.707031 119.230469 64.269531 C 119.328125 67.378906 119.328125 70.472656 119.230469 73.582031 C 119.214844 74.128906 119.0625 74.648438 118.695312 75.085938 C 117.894531 75.746094 116.921875 75.691406 115.980469 75.691406 C 109.480469 75.707031 102.96875 75.707031 96.46875 75.691406 C 95.597656 75.691406 94.695312 75.761719 93.9375 75.183594 C 93.121094 74.46875 93.175781 73.496094 93.164062 72.554688 C 93.136719 70.175781 93.136719 67.8125 93.164062 65.4375 C 93.164062 64.085938 92.644531 63.4375 91.234375 63.464844 C 88.660156 63.496094 86.085938 63.464844 83.511719 63.464844 C 82.316406 63.464844 81.8125 64.03125 81.8125 65.195312 C 81.8125 67.628906 81.839844 70.078125 81.8125 72.511719 C 81.796875 73.945312 82.527344 74.398438 83.835938 74.398438 C 86.269531 74.398438 88.71875 74.382812 91.152344 74.398438 C 92.09375 74.398438 93.066406 74.355469 93.839844 75.074219 C 94.527344 75.875 94.429688 76.84375 94.441406 77.789062 C 94.472656 79.953125 94.441406 82.132812 94.441406 84.300781 C 94.457031 86.847656 94.585938 86.972656 97.058594 87 C 99.367188 87.03125 101.675781 86.972656 103.980469 87.03125 C 106.554688 87.085938 107.003906 87.5625 107.0625 90.195312 C 107.105469 92.363281 107.0625 94.542969 107.074219 96.707031 C 107.105469 99.058594 107.257812 99.226562 109.664062 99.226562 C 115.839844 99.253906 122.015625 99.226562 128.175781 99.242188 C 129.246094 99.242188 130.371094 99.101562 131.3125 99.832031 C 131.734375 100.308594 131.863281 100.898438 131.878906 101.519531 C 131.960938 104.671875 131.960938 107.820312 131.878906 110.972656 C 131.863281 111.507812 131.734375 112.042969 131.398438 112.492188 C 130.640625 113.222656 129.667969 113.152344 128.726562 113.167969 C 126.574219 113.195312 124.40625 113.167969 122.253906 113.179688 C 119.328125 113.179688 119.285156 113.238281 119.273438 116.078125 C 119.273438 118.230469 119.285156 120.398438 119.273438 122.550781 C 119.273438 123.480469 119.328125 124.449219 118.667969 125.25 C 118.117188 125.703125 117.445312 125.785156 116.769531 125.800781 C 114.011719 125.855469 111.269531 125.84375 108.511719 125.800781 C 107.765625 125.800781 107.035156 125.703125 106.457031 125.125 Z M 106.429688 125.097656 " fill-opacity="1" fill-rule="nonzero"/></g><g clip-path="url(#865a03399d)"><path fill="#41860d" d="M 318.203125 62.707031 C 314.613281 62.734375 311.011719 62.820312 307.425781 62.777344 C 306.273438 62.777344 305.933594 63.101562 305.960938 64.242188 C 306.03125 67.292969 305.90625 70.34375 306.019531 73.398438 C 306.074219 74.777344 305.609375 75.085938 304.316406 75.042969 C 301.546875 74.945312 298.746094 75.15625 295.976562 74.960938 C 294.003906 74.820312 293.640625 75.566406 293.722656 77.308594 C 293.863281 80.222656 293.710938 83.148438 293.792969 86.058594 C 293.824219 87.269531 293.570312 87.703125 292.246094 87.664062 C 288.996094 87.5625 285.734375 87.664062 282.484375 87.605469 C 281.414062 87.578125 281.089844 87.886719 281.121094 88.972656 C 281.191406 92.09375 281.078125 95.21875 281.175781 98.324219 C 281.21875 99.621094 280.796875 99.914062 279.570312 99.875 C 276.519531 99.789062 273.464844 99.957031 270.414062 99.804688 C 268.710938 99.71875 268.417969 100.335938 268.472656 101.84375 C 268.585938 104.753906 268.417969 107.679688 268.542969 110.59375 C 268.597656 112.054688 268.277344 112.535156 266.6875 112.519531 C 259.019531 112.4375 251.351562 112.507812 243.6875 112.519531 C 243.601562 112.4375 243.503906 112.335938 243.402344 112.253906 C 242.589844 108.496094 243.011719 104.710938 243.152344 100.941406 C 243.207031 99.5625 244.375 99.296875 245.527344 99.253906 C 248.101562 99.15625 250.675781 99.253906 253.25 99.199219 C 255.332031 99.15625 255.558594 98.917969 255.601562 96.820312 C 255.644531 94.511719 255.558594 92.207031 255.628906 89.914062 C 255.699219 87.578125 256.191406 87.085938 258.570312 87.015625 C 260.945312 86.945312 263.308594 86.960938 265.6875 87.015625 C 267.261719 87.042969 267.867188 86.367188 267.839844 84.820312 C 267.796875 82.316406 267.785156 79.800781 267.839844 77.296875 C 267.910156 74.945312 268.386719 74.46875 270.765625 74.398438 C 273.269531 74.328125 275.789062 74.367188 278.292969 74.367188 C 279.683594 74.367188 280.457031 73.890625 280.445312 72.371094 C 280.414062 69.992188 280.445312 67.628906 280.445312 65.253906 C 280.445312 63.945312 279.8125 63.453125 278.574219 63.4375 C 276.070312 63.4375 273.550781 63.453125 271.046875 63.425781 C 270.105469 63.425781 269.132812 63.496094 268.332031 62.832031 C 267.910156 62.257812 267.839844 61.566406 267.839844 60.890625 C 267.796875 57.980469 267.753906 55.054688 267.855469 52.140625 C 267.925781 50.128906 268.445312 49.636719 270.441406 49.539062 C 273.015625 49.414062 275.605469 49.457031 278.179688 49.511719 C 279.839844 49.554688 280.484375 48.863281 280.457031 47.234375 C 280.414062 44.730469 280.375 42.210938 280.484375 39.707031 C 280.570312 37.484375 281.089844 36.921875 283.328125 36.90625 C 294.246094 36.835938 305.175781 36.835938 316.089844 36.90625 C 318.160156 36.921875 318.371094 37.246094 318.371094 39.328125 C 318.371094 46.515625 318.371094 53.703125 318.371094 60.90625 C 318.371094 61.496094 318.523438 62.128906 318.171875 62.691406 Z M 318.203125 62.707031 " fill-opacity="1" fill-rule="nonzero"/></g><g clip-path="url(#5c1bc6ed9e)"><path fill="#4b9712" d="M 318.203125 62.707031 C 318.203125 54.96875 318.160156 47.234375 318.230469 39.507812 C 318.230469 38.019531 317.863281 37.511719 316.300781 37.527344 C 305.246094 37.582031 294.1875 37.597656 283.132812 37.527344 C 281.441406 37.527344 281.0625 38.101562 281.121094 39.636719 C 281.21875 42.546875 281.078125 45.472656 281.175781 48.386719 C 281.21875 49.835938 280.699219 50.257812 279.304688 50.214844 C 276.253906 50.128906 273.199219 50.230469 270.148438 50.171875 C 268.910156 50.144531 268.488281 50.566406 268.5 51.820312 C 268.558594 55.476562 268.515625 59.148438 268.5 62.804688 C 267.742188 63.578125 266.757812 63.4375 265.8125 63.453125 C 263.507812 63.496094 261.199219 63.496094 258.894531 63.453125 C 257.515625 63.4375 256.921875 64.015625 256.9375 65.394531 C 256.9375 67.769531 256.980469 70.148438 256.921875 72.511719 C 256.867188 75.15625 256.417969 75.605469 253.828125 75.664062 C 251.378906 75.71875 248.945312 75.707031 246.5 75.664062 C 244.953125 75.636719 244.277344 76.238281 244.304688 77.816406 C 244.332031 80.320312 244.359375 82.835938 244.289062 85.339844 C 244.21875 87.703125 243.714844 88.296875 241.378906 88.253906 C 238.003906 88.183594 234.613281 88.761719 231.265625 87.886719 C 231.179688 87.789062 231.082031 87.703125 230.996094 87.605469 C 230.996094 80.136719 231.09375 72.679688 230.996094 65.210938 C 230.96875 63.339844 231.292969 62.59375 233.359375 62.75 C 236.328125 62.960938 239.324219 62.75 242.320312 62.820312 C 243.375 62.847656 243.726562 62.550781 243.699219 61.46875 C 243.628906 58.21875 243.742188 54.957031 243.644531 51.691406 C 243.601562 50.382812 244.039062 50.101562 245.246094 50.144531 C 248.300781 50.230469 251.351562 50.089844 254.40625 50.199219 C 255.855469 50.257812 256.417969 49.960938 256.347656 48.359375 C 256.207031 45.25 256.347656 42.113281 256.277344 38.988281 C 256.246094 37.835938 256.585938 37.484375 257.738281 37.511719 C 260.792969 37.597656 263.84375 37.457031 266.898438 37.566406 C 268.289062 37.625 268.570312 37.117188 268.542969 35.851562 C 268.457031 32.941406 268.585938 30.015625 268.488281 27.101562 C 268.429688 25.710938 268.769531 25.230469 270.246094 25.289062 C 273.425781 25.414062 276.632812 25.289062 279.8125 25.34375 C 280.894531 25.371094 281.191406 25.035156 281.175781 23.964844 C 281.105469 20.773438 281.203125 17.578125 281.132812 14.398438 C 281.105469 13.160156 281.316406 12.65625 282.75 12.65625 C 294.160156 12.726562 305.554688 12.695312 316.964844 12.683594 C 317.921875 12.683594 318.59375 12.65625 318.59375 14.019531 C 318.554688 29.972656 318.582031 45.925781 318.582031 61.878906 C 318.582031 62.1875 318.679688 62.566406 318.230469 62.707031 Z M 318.203125 62.707031 " fill-opacity="1" fill-rule="nonzero"/></g><path fill="#fe4c00" d="M 243.6875 299.898438 C 243.6875 311.703125 243.628906 323.503906 243.699219 335.320312 C 243.699219 337.066406 243.234375 337.472656 241.574219 337.390625 C 238.804688 337.25 236.003906 337.445312 233.234375 337.304688 C 231.53125 337.21875 230.941406 337.574219 230.96875 339.457031 C 231.109375 346.449219 230.984375 353.425781 231.054688 360.417969 C 231.066406 361.824219 230.742188 362.234375 229.28125 362.21875 C 222.164062 362.132812 215.03125 362.21875 207.910156 362.148438 C 206.464844 362.132812 206.082031 362.527344 206.140625 363.949219 C 206.253906 366.929688 206.054688 369.925781 206.222656 372.894531 C 206.308594 374.582031 205.6875 374.851562 204.183594 374.835938 C 192.984375 374.78125 181.789062 374.78125 170.605469 374.835938 C 169.15625 374.835938 168.605469 374.597656 168.664062 372.996094 C 168.789062 369.40625 168.691406 365.804688 168.675781 362.203125 C 168.777344 362.121094 168.859375 362.023438 168.960938 361.921875 C 169.902344 361.417969 170.941406 361.527344 171.941406 361.527344 C 178.046875 361.515625 184.136719 361.527344 190.242188 361.515625 C 192.71875 361.515625 192.859375 361.332031 192.886719 358.84375 C 192.914062 356.675781 192.859375 354.507812 192.902344 352.328125 C 192.957031 349.824219 193.410156 349.347656 195.914062 349.332031 C 201.679688 349.277344 207.433594 349.320312 213.203125 349.320312 C 213.875 349.320312 214.550781 349.320312 215.242188 349.320312 C 218.011719 349.289062 218.125 349.191406 218.152344 346.492188 C 218.179688 343.4375 218.097656 340.386719 218.195312 337.347656 C 218.082031 333.832031 218.152344 330.3125 218.167969 326.8125 C 218.167969 326.066406 218.210938 325.320312 218.671875 324.671875 C 219.476562 324.023438 220.445312 324.09375 221.386719 324.082031 C 223.484375 324.054688 225.582031 324.082031 227.675781 324.082031 C 230.195312 324.066406 230.351562 323.925781 230.351562 321.464844 C 230.378906 316.527344 230.351562 311.589844 230.351562 306.636719 C 230.351562 304.949219 230.292969 303.246094 230.40625 301.558594 C 230.476562 300.460938 230.8125 299.421875 232.078125 299.378906 C 235.851562 299.253906 239.632812 298.832031 243.375 299.632812 C 243.476562 299.730469 243.558594 299.816406 243.65625 299.914062 Z M 243.6875 299.898438 " fill-opacity="1" fill-rule="nonzero"/><path fill="#fe8234" d="M 118.640625 187.445312 C 118.640625 194.898438 118.554688 202.371094 118.652344 209.824219 C 118.683594 211.722656 118.246094 212.457031 116.21875 212.355469 C 112.96875 212.1875 109.707031 212.316406 106.457031 212.328125 C 106.429688 196.207031 106.429688 180.101562 106.371094 163.980469 C 106.371094 162.910156 106.683594 162.574219 107.75 162.601562 C 110.664062 162.671875 113.589844 162.472656 116.488281 162.671875 C 118.386719 162.796875 118.710938 162.09375 118.652344 160.40625 C 118.539062 156.960938 118.640625 153.5 118.652344 150.050781 C 119.398438 149.292969 120.382812 149.378906 121.3125 149.363281 C 123.605469 149.335938 125.898438 149.363281 128.191406 149.347656 C 130.414062 149.320312 130.554688 149.164062 130.582031 146.886719 C 130.609375 144.59375 130.582031 142.300781 130.597656 140.007812 C 130.597656 139.066406 130.539062 138.09375 131.203125 137.308594 C 131.890625 136.757812 132.707031 136.746094 133.507812 136.746094 C 136.957031 136.746094 140.386719 136.660156 143.835938 136.773438 C 147.15625 136.660156 150.472656 136.730469 153.792969 136.746094 C 154.609375 136.746094 155.425781 136.757812 156.117188 137.308594 C 156.550781 137.785156 156.664062 138.375 156.691406 138.996094 C 156.777344 142.160156 156.761719 145.324219 156.691406 148.492188 C 156.691406 149.039062 156.539062 149.558594 156.1875 149.996094 L 156.015625 150.039062 C 155.300781 150.714844 154.386719 150.628906 153.511719 150.644531 C 151.277344 150.671875 149.039062 150.628906 146.800781 150.65625 C 144.691406 150.683594 144.523438 150.855469 144.496094 153.019531 C 144.46875 155.328125 144.496094 157.632812 144.480469 159.925781 C 144.480469 160.871094 144.550781 161.839844 143.917969 162.65625 C 143.117188 163.316406 142.144531 163.246094 141.21875 163.261719 C 138.855469 163.289062 136.492188 163.332031 134.128906 163.261719 C 132.480469 163.207031 131.792969 163.824219 131.847656 165.5 C 131.933594 167.722656 131.890625 169.957031 131.847656 172.179688 C 131.847656 173.121094 131.933594 174.078125 131.34375 174.921875 C 130.527344 175.558594 129.554688 175.472656 128.628906 175.488281 C 126.335938 175.515625 124.027344 175.488281 121.734375 175.5 C 119.386719 175.527344 119.257812 175.65625 119.246094 178.074219 C 119.230469 180.367188 119.246094 182.675781 119.246094 184.96875 C 119.246094 185.839844 119.273438 186.742188 118.640625 187.457031 Z M 118.640625 187.445312 " fill-opacity="1" fill-rule="nonzero"/><path fill="#4b9712" d="M 168.691406 12.667969 C 168.691406 20.96875 168.71875 29.269531 168.71875 37.566406 C 169.324219 38.214844 169.367188 39.046875 169.367188 39.863281 C 169.367188 55.785156 169.453125 71.695312 169.324219 87.621094 C 169.453125 90.941406 169.394531 94.246094 169.351562 97.566406 C 169.324219 99.972656 168.832031 100.476562 166.496094 100.519531 C 163.050781 100.578125 159.605469 100.617188 156.144531 100.492188 C 152.753906 100.589844 149.378906 100.535156 145.988281 100.519531 C 145.242188 100.519531 144.496094 100.492188 143.835938 100.042969 C 143.652344 99.84375 143.453125 99.621094 143.425781 99.351562 C 143.160156 95.539062 142.863281 91.714844 143.59375 87.902344 C 143.695312 87.804688 143.777344 87.71875 143.875 87.621094 C 147.335938 87.621094 150.796875 87.550781 154.246094 87.691406 C 155.847656 87.761719 156.101562 87.210938 156.085938 85.765625 C 156.046875 62.171875 156.085938 38.582031 156.015625 14.976562 C 156.015625 13.175781 156.382812 12.554688 158.296875 12.640625 C 161.742188 12.808594 165.203125 12.667969 168.664062 12.640625 Z M 168.691406 12.667969 " fill-opacity="1" fill-rule="nonzero"/><path fill="#fe4c00" d="M 268.445312 237.550781 C 268.472656 249.609375 268.472656 261.679688 268.542969 273.734375 C 268.542969 274.875 268.105469 275.054688 267.121094 275.042969 C 264.140625 274.984375 261.15625 275.113281 258.175781 274.984375 C 256.699219 274.929688 256.234375 275.265625 256.261719 276.84375 C 256.359375 283.890625 256.261719 290.9375 256.347656 297.988281 C 256.359375 299.464844 256.066406 299.957031 254.488281 299.898438 C 250.902344 299.773438 247.300781 299.871094 243.714844 299.886719 L 243.671875 299.84375 C 242.96875 299.054688 243.039062 298.085938 243.039062 297.140625 C 243.039062 278.109375 243.023438 259.074219 243.039062 240.042969 C 243.039062 239.171875 243.011719 238.269531 243.558594 237.496094 C 244.429688 236.792969 245.472656 236.890625 246.472656 236.890625 C 252.84375 236.878906 259.214844 236.878906 265.589844 236.890625 C 266.585938 236.890625 267.644531 236.75 268.472656 237.539062 Z M 268.445312 237.550781 " fill-opacity="1" fill-rule="nonzero"/><path fill="#fe4c00" d="M 131.203125 287.28125 C 134.789062 287.28125 138.375 287.335938 141.949219 287.226562 C 143.46875 287.183594 143.917969 287.660156 143.90625 289.179688 C 143.835938 296.960938 143.875 304.738281 143.875 312.519531 C 144.664062 313.433594 144.507812 314.558594 144.523438 315.628906 C 144.550781 317.792969 144.550781 319.960938 144.523438 322.140625 C 144.507812 323.519531 145.128906 324.082031 146.480469 324.09375 C 148.984375 324.09375 151.5 324.023438 154.003906 324.136719 C 156.128906 324.222656 156.679688 324.730469 156.707031 326.839844 C 156.789062 333.886719 156.761719 340.933594 156.71875 347.980469 C 156.71875 348.585938 156.664062 349.207031 156.339844 349.753906 C 156.242188 349.851562 156.15625 349.9375 156.058594 350.035156 C 152.542969 350.035156 149.011719 349.953125 145.496094 350.035156 C 144.117188 350.078125 143.804688 349.628906 143.847656 348.335938 C 143.933594 345.28125 143.777344 342.230469 143.917969 339.191406 C 144.003906 337.585938 143.441406 337.289062 141.992188 337.347656 C 139.21875 337.460938 136.433594 337.25 133.664062 337.417969 C 131.777344 337.53125 131.1875 337.109375 131.203125 335.054688 C 131.300781 319.875 131.257812 304.695312 131.257812 289.519531 C 131.257812 288.773438 131.230469 288.027344 131.214844 287.28125 Z M 131.203125 287.28125 " fill-opacity="1" fill-rule="nonzero"/><path fill="#fe4c00" d="M 193.5625 137.292969 C 197.769531 137.292969 201.988281 137.292969 206.195312 137.292969 C 206.871094 136.730469 207.6875 136.714844 208.503906 136.714844 C 211.933594 136.714844 215.382812 136.644531 218.8125 136.757812 C 222.121094 136.644531 225.425781 136.714844 228.746094 136.714844 C 229.5625 136.714844 230.378906 136.714844 231.054688 137.292969 C 234.78125 137.320312 238.496094 137.378906 242.222656 137.335938 C 243.347656 137.335938 243.726562 137.617188 243.699219 138.785156 C 243.644531 142.511719 243.699219 146.226562 243.714844 149.953125 C 222.90625 149.953125 202.101562 149.953125 181.308594 149.953125 C 180.988281 149.589844 180.789062 149.152344 180.777344 148.671875 C 180.648438 145.3125 180.636719 141.964844 180.777344 138.601562 C 180.804688 138.121094 180.957031 137.671875 181.269531 137.308594 C 181.746094 136.871094 182.351562 136.746094 182.957031 136.730469 C 185.925781 136.644531 188.894531 136.660156 191.859375 136.714844 C 192.480469 136.714844 193.070312 136.855469 193.5625 137.277344 Z M 193.5625 137.292969 " fill-opacity="1" fill-rule="nonzero"/><g clip-path="url(#4104f7c9f8)"><path fill="#4b9712" d="M 106.429688 50.160156 C 89.746094 50.160156 73.046875 50.171875 56.363281 50.1875 C 56.335938 46.601562 56.390625 43 56.265625 39.410156 C 56.207031 37.890625 56.617188 37.511719 58.148438 37.511719 C 71.78125 37.582031 85.410156 37.554688 99.03125 37.554688 C 100.929688 37.554688 102.828125 37.625 104.726562 37.527344 C 106.019531 37.457031 106.472656 37.792969 106.429688 39.171875 C 106.34375 42.828125 106.429688 46.488281 106.429688 50.160156 Z M 106.429688 50.160156 " fill-opacity="1" fill-rule="nonzero"/></g><path fill="#fe4000" d="M 268.445312 237.550781 C 260.1875 237.550781 251.929688 237.550781 243.65625 237.550781 C 243.234375 237.933594 242.742188 238.128906 242.195312 238.144531 C 238.972656 238.242188 235.738281 238.253906 232.515625 238.144531 C 231.96875 238.128906 231.460938 237.933594 231.054688 237.539062 L 231.054688 224.917969 C 231.699219 224.316406 232.515625 224.257812 233.332031 224.257812 C 240.96875 224.257812 248.59375 224.175781 256.234375 224.300781 C 259.554688 224.203125 262.859375 224.257812 266.179688 224.273438 C 266.980469 224.273438 267.824219 224.273438 268.457031 224.917969 L 268.457031 237.539062 Z M 268.445312 237.550781 " fill-opacity="1" fill-rule="nonzero"/><path fill="#fe4c00" d="M 268.445312 224.933594 C 264.394531 224.933594 260.339844 224.933594 256.289062 224.933594 C 255.585938 224.160156 255.628906 223.1875 255.628906 222.246094 C 255.613281 211.554688 255.613281 200.863281 255.628906 190.160156 C 255.628906 189.214844 255.585938 188.246094 256.289062 187.472656 C 260.339844 187.472656 264.394531 187.472656 268.445312 187.472656 C 268.445312 199.964844 268.445312 212.457031 268.445312 224.949219 Z M 268.445312 224.933594 " fill-opacity="1" fill-rule="nonzero"/><path fill="#4b9712" d="M 193.605469 12.683594 C 185.292969 12.683594 176.992188 12.683594 168.675781 12.683594 C 168.675781 9.023438 168.746094 5.367188 168.675781 1.710938 C 168.648438 0.472656 168.988281 0.105469 170.265625 0.105469 C 177.511719 0.164062 184.757812 0.164062 192 0.105469 C 193.269531 0.105469 193.605469 0.472656 193.578125 1.710938 C 193.519531 5.367188 193.578125 9.023438 193.589844 12.683594 Z M 193.605469 12.683594 " fill-opacity="1" fill-rule="nonzero"/><path fill="#fe4c00" d="M 118.570312 262.421875 C 122.226562 262.421875 125.882812 262.464844 129.542969 262.382812 C 130.890625 262.351562 131.273438 262.84375 131.273438 264.140625 C 131.214844 271.863281 131.230469 279.570312 131.230469 287.296875 C 127.574219 287.28125 123.914062 287.195312 120.257812 287.296875 C 118.894531 287.324219 118.582031 286.902344 118.597656 285.59375 C 118.640625 277.871094 118.597656 270.148438 118.597656 262.421875 Z M 118.570312 262.421875 " fill-opacity="1" fill-rule="nonzero"/><path fill="#4b9712" d="M 131.273438 75.003906 C 134.984375 75.003906 138.714844 75.074219 142.425781 75.003906 C 143.582031 74.988281 143.917969 75.3125 143.890625 76.464844 C 143.835938 80.179688 143.890625 83.90625 143.890625 87.621094 L 143.792969 87.71875 C 143.484375 88.015625 143.101562 88.199219 142.695312 88.199219 C 138.980469 88.253906 135.253906 88.5625 131.554688 88.015625 C 131.3125 87.902344 131.117188 87.734375 130.960938 87.507812 C 130.386719 83.429688 130.34375 79.347656 130.976562 75.253906 C 131.074219 75.171875 131.160156 75.074219 131.257812 74.988281 Z M 131.273438 75.003906 " fill-opacity="1" fill-rule="nonzero"/><path fill="#fe4c00" d="M 256.21875 162.601562 C 252.6875 162.601562 249.15625 162.542969 245.628906 162.644531 C 244.164062 162.683594 243.574219 162.320312 243.617188 160.730469 C 243.726562 157.140625 243.671875 153.539062 243.671875 149.941406 C 247.398438 149.953125 251.113281 150.023438 254.839844 149.953125 C 256.007812 149.941406 256.332031 150.292969 256.304688 151.429688 C 256.21875 155.160156 256.234375 158.871094 256.207031 162.601562 Z M 256.21875 162.601562 " fill-opacity="1" fill-rule="nonzero"/><path fill="#ffffff" d="M 131.230469 137.347656 C 131.230469 140.992188 131.1875 144.636719 131.257812 148.28125 C 131.285156 149.574219 130.933594 150.039062 129.570312 150.011719 C 125.925781 149.941406 122.28125 150.011719 118.640625 150.023438 C 118.597656 145.816406 118.570312 141.625 118.527344 137.417969 C 118.609375 137.320312 118.695312 137.222656 118.78125 137.125 C 120.3125 136.40625 121.960938 136.703125 123.535156 136.730469 C 125.996094 136.785156 128.5 136.335938 130.933594 137.054688 C 131.03125 137.136719 131.117188 137.222656 131.214844 137.320312 Z M 131.230469 137.347656 " fill-opacity="1" fill-rule="nonzero"/><path fill="#41860d" d="M 243.699219 112.546875 C 243.699219 116.261719 243.628906 119.988281 243.699219 123.703125 C 243.714844 124.855469 243.390625 125.179688 242.238281 125.167969 C 238.523438 125.109375 234.796875 125.167969 231.082031 125.167969 C 230.984375 125.066406 230.898438 124.984375 230.800781 124.886719 C 230.265625 120.722656 229.914062 116.570312 231.011719 112.4375 C 231.503906 112.027344 232.09375 111.914062 232.699219 111.902344 C 235.765625 111.816406 238.847656 111.832031 241.914062 111.902344 C 242.519531 111.902344 243.121094 112 243.585938 112.4375 C 243.585938 112.4375 243.699219 112.546875 243.699219 112.546875 Z M 243.699219 112.546875 " fill-opacity="1" fill-rule="nonzero"/><path fill="#4b9712" d="M 218.8125 112.507812 C 215.242188 112.507812 211.652344 112.4375 208.082031 112.535156 C 206.535156 112.578125 206.109375 112.042969 206.152344 110.566406 C 206.253906 106.992188 206.195312 103.40625 206.210938 99.832031 C 210.402344 99.832031 214.59375 99.832031 218.785156 99.832031 C 218.871094 99.914062 218.96875 100.015625 219.054688 100.097656 C 219.6875 104.136719 219.660156 108.171875 219.082031 112.210938 C 218.996094 112.308594 218.914062 112.394531 218.8125 112.492188 Z M 218.8125 112.507812 " fill-opacity="1" fill-rule="nonzero"/><path fill="#fe4c00" d="M 168.691406 362.234375 C 164.976562 362.234375 161.25 362.164062 157.535156 362.234375 C 156.382812 362.246094 156.046875 361.921875 156.074219 360.769531 C 156.144531 357.183594 156.074219 353.59375 156.074219 350.023438 C 156.074219 350.023438 156.117188 349.980469 156.117188 349.980469 C 156.648438 349.472656 157.324219 349.375 158 349.359375 C 160.914062 349.304688 163.839844 349.277344 166.75 349.359375 C 168.761719 349.429688 169.269531 349.9375 169.339844 351.949219 C 169.4375 354.734375 169.394531 357.507812 169.339844 360.292969 C 169.339844 360.980469 169.226562 361.640625 168.71875 362.175781 L 168.675781 362.21875 Z M 168.691406 362.234375 " fill-opacity="1" fill-rule="nonzero"/><path fill="#4b9712" d="M 118.652344 62.792969 C 115.136719 62.792969 111.621094 62.761719 108.117188 62.832031 C 106.792969 62.863281 106.34375 62.410156 106.371094 61.089844 C 106.441406 57.445312 106.414062 53.789062 106.414062 50.144531 C 110.003906 50.144531 113.589844 50.214844 117.175781 50.144531 C 118.328125 50.128906 118.667969 50.453125 118.640625 51.609375 C 118.582031 55.320312 118.640625 59.050781 118.640625 62.777344 Z M 118.652344 62.792969 " fill-opacity="1" fill-rule="nonzero"/><path fill="#4b9712" d="M 118.613281 75.03125 C 118.613281 70.949219 118.625 66.855469 118.640625 62.777344 C 122.351562 62.777344 126.082031 62.847656 129.796875 62.777344 C 130.933594 62.761719 131.285156 63.074219 131.273438 64.242188 C 131.203125 67.828125 131.273438 71.414062 131.273438 74.988281 C 131.273438 74.988281 131.171875 75.085938 131.171875 75.085938 C 130.976562 75.269531 130.75 75.464844 130.484375 75.480469 C 126.617188 75.675781 122.746094 76 118.894531 75.296875 C 118.792969 75.214844 118.695312 75.113281 118.609375 75.03125 Z M 118.613281 75.03125 " fill-opacity="1" fill-rule="nonzero"/><path fill="#41860d" d="M 231.039062 137.292969 C 226.960938 137.292969 222.894531 137.292969 218.8125 137.292969 C 218.503906 137.011719 218.308594 136.644531 218.28125 136.238281 C 218.082031 132.890625 218.070312 129.542969 218.28125 126.207031 C 218.308594 125.800781 218.546875 125.449219 218.8125 125.136719 C 219.179688 124.828125 219.601562 124.605469 220.09375 124.574219 C 223.34375 124.421875 226.609375 124.421875 229.855469 124.574219 C 230.265625 124.589844 230.644531 124.757812 230.953125 125.054688 L 231.066406 125.167969 C 231.066406 129.203125 231.039062 133.242188 231.023438 137.277344 Z M 231.039062 137.292969 " fill-opacity="1" fill-rule="nonzero"/><path fill="#ffffff" d="M 106.429688 125.097656 C 110.496094 125.109375 114.558594 125.125 118.609375 125.136719 C 118.695312 125.238281 118.78125 125.335938 118.878906 125.433594 C 119.371094 129.402344 119.738281 133.367188 118.667969 137.308594 C 118.667969 137.308594 118.539062 137.433594 118.539062 137.433594 C 115.109375 137.40625 111.675781 137.320312 108.242188 137.378906 C 106.894531 137.390625 106.316406 137.066406 106.359375 135.589844 C 106.457031 132.089844 106.414062 128.585938 106.429688 125.097656 Z M 106.429688 125.097656 " fill-opacity="1" fill-rule="nonzero"/><path fill="#4b9712" d="M 218.785156 99.84375 C 218.785156 96.257812 218.855469 92.683594 218.785156 89.097656 C 218.773438 87.945312 219.09375 87.605469 220.25 87.632812 C 223.824219 87.691406 227.410156 87.632812 230.996094 87.632812 L 231.125 87.761719 C 231.515625 88.183594 231.628906 88.703125 231.644531 89.238281 C 231.726562 92.320312 231.726562 95.398438 231.644531 98.464844 C 231.628906 99 231.503906 99.523438 231.152344 99.972656 C 230.601562 100.4375 229.925781 100.507812 229.253906 100.519531 C 226.425781 100.578125 223.597656 100.5625 220.769531 100.519531 C 220.09375 100.519531 219.417969 100.464844 218.882812 99.957031 L 218.785156 99.859375 Z M 218.785156 99.84375 " fill-opacity="1" fill-rule="nonzero"/><path fill="#fe5710" d="M 168.734375 362.175781 C 168.734375 358.644531 168.675781 355.128906 168.734375 351.597656 C 168.746094 350.359375 168.324219 349.9375 167.089844 349.953125 C 163.429688 350.007812 159.757812 349.953125 156.101562 349.953125 C 156.101562 342.242188 156.03125 334.535156 156.117188 326.824219 C 156.128906 325.109375 155.609375 324.601562 153.933594 324.6875 C 151.375 324.8125 148.785156 324.617188 146.226562 324.757812 C 144.425781 324.855469 143.707031 324.390625 143.804688 322.4375 C 143.976562 319.128906 143.847656 315.808594 143.863281 312.503906 C 159.675781 312.503906 175.472656 312.476562 191.285156 312.546875 C 193.027344 312.546875 193.703125 312.179688 193.589844 310.308594 C 193.421875 307.539062 193.648438 304.738281 193.507812 301.96875 C 193.421875 300.210938 194.082031 299.773438 195.714844 299.84375 C 198.558594 299.957031 201.414062 299.800781 204.253906 299.914062 C 205.816406 299.96875 206.210938 299.421875 206.195312 297.929688 C 206.125 291.007812 206.210938 284.085938 206.125 277.167969 C 206.097656 275.476562 206.574219 274.914062 208.292969 274.984375 C 211.0625 275.113281 213.863281 274.929688 216.632812 275.054688 C 218.292969 275.125 218.855469 274.664062 218.828125 272.917969 C 218.730469 265.996094 218.871094 259.074219 218.742188 252.15625 C 218.703125 250.144531 219.363281 249.609375 221.277344 249.71875 C 223.90625 249.875 226.566406 249.691406 229.210938 249.792969 C 230.671875 249.847656 231.066406 249.3125 231.039062 247.921875 C 230.953125 244.460938 231.011719 241 231.023438 237.539062 C 235.230469 237.539062 239.4375 237.539062 243.644531 237.539062 C 243.644531 258.300781 243.644531 279.066406 243.628906 299.828125 C 240.183594 299.828125 236.738281 299.941406 233.289062 299.816406 C 231.546875 299.757812 230.953125 300.195312 230.984375 302.050781 C 231.09375 308.816406 230.984375 315.570312 231.066406 322.335938 C 231.09375 324.125 230.703125 324.855469 228.746094 324.757812 C 225.441406 324.589844 222.121094 324.714844 218.8125 324.714844 C 217.898438 325.503906 216.773438 325.347656 215.707031 325.347656 C 209.542969 325.363281 203.382812 325.347656 197.21875 325.347656 C 194.308594 325.347656 194.222656 325.433594 194.210938 328.257812 C 194.210938 330.089844 194.210938 331.917969 194.210938 333.746094 C 194.222656 336.574219 194.308594 336.65625 197.21875 336.65625 C 203.382812 336.65625 209.542969 336.65625 215.707031 336.65625 C 216.773438 336.65625 217.898438 336.515625 218.8125 337.304688 C 218.8125 340.75 218.730469 344.210938 218.855469 347.660156 C 218.925781 349.402344 218.476562 349.992188 216.621094 349.964844 C 209.585938 349.851562 202.539062 349.964844 195.492188 349.894531 C 193.984375 349.882812 193.464844 350.304688 193.519531 351.835938 C 193.632812 354.609375 193.480469 357.394531 193.578125 360.164062 C 193.632812 361.613281 193.269531 362.191406 191.679688 362.175781 C 184.023438 362.09375 176.371094 362.132812 168.71875 362.121094 Z M 168.734375 362.175781 " fill-opacity="1" fill-rule="nonzero"/><path fill="#fe5710" d="M 256.289062 187.457031 C 256.289062 199.949219 256.289062 212.441406 256.289062 224.917969 C 247.878906 224.917969 239.464844 224.917969 231.039062 224.917969 C 231.039062 221.472656 231.125 218.011719 230.996094 214.566406 C 230.925781 212.835938 231.347656 212.144531 233.21875 212.246094 C 236.0625 212.414062 238.902344 212.203125 241.746094 212.316406 C 243.292969 212.371094 243.699219 211.851562 243.6875 210.34375 C 243.617188 203.507812 243.726562 196.671875 243.601562 189.820312 C 243.558594 187.808594 244.207031 187.304688 246.121094 187.386719 C 249.496094 187.542969 252.886719 187.429688 256.277344 187.429688 Z M 256.289062 187.457031 " fill-opacity="1" fill-rule="nonzero"/><path fill="#fe4000" d="M 174.710938 275.027344 C 169.15625 275.027344 163.597656 274.984375 158.027344 275.054688 C 156.550781 275.070312 155.988281 274.691406 156.046875 273.128906 C 156.15625 270.148438 156.128906 267.164062 156.046875 264.183594 C 156.015625 262.929688 156.3125 262.367188 157.71875 262.367188 C 169.113281 262.410156 180.496094 262.410156 191.890625 262.367188 C 193.085938 262.367188 193.589844 262.703125 193.5625 263.972656 C 193.492188 267.09375 193.480469 270.203125 193.5625 273.324219 C 193.605469 274.703125 193.058594 275.042969 191.777344 275.027344 C 186.078125 274.972656 180.382812 275 174.699219 275 Z M 174.710938 275.027344 " fill-opacity="1" fill-rule="nonzero"/><path fill="#fe4000" d="M 118.640625 187.445312 C 118.640625 183.871094 118.695312 180.285156 118.582031 176.710938 C 118.527344 175.148438 119.089844 174.769531 120.550781 174.796875 C 124.125 174.882812 127.714844 174.796875 131.285156 174.796875 C 131.636719 174.460938 132.074219 174.277344 132.550781 174.261719 C 135.898438 174.136719 139.261719 174.121094 142.609375 174.261719 C 143.089844 174.289062 143.523438 174.445312 143.90625 174.753906 C 144.382812 175.289062 144.480469 175.964844 144.496094 176.640625 C 144.550781 179.609375 144.550781 182.578125 144.496094 185.542969 C 144.496094 186.21875 144.382812 186.894531 143.90625 187.429688 C 135.476562 187.429688 127.066406 187.429688 118.640625 187.429688 Z M 118.640625 187.445312 " fill-opacity="1" fill-rule="nonzero"/><path fill="#ffffff" d="M 181.324219 137.335938 C 181.324219 141.542969 181.308594 145.746094 181.296875 149.953125 C 177.117188 149.953125 172.925781 149.953125 168.746094 149.953125 C 168.621094 149.800781 168.425781 149.660156 168.410156 149.460938 C 167.933594 145.425781 167.636719 141.386719 168.578125 137.363281 C 168.816406 137.125 169.101562 136.898438 169.4375 136.886719 C 173.304688 136.675781 177.175781 136.363281 181.027344 137.054688 C 181.128906 137.136719 181.226562 137.238281 181.324219 137.320312 Z M 181.324219 137.335938 " fill-opacity="1" fill-rule="nonzero"/><path fill="#fe4c00" d="M 168.707031 137.347656 C 168.71875 141.554688 168.734375 145.761719 168.761719 149.96875 C 164.570312 149.96875 160.390625 149.96875 156.199219 149.96875 C 156.15625 145.761719 156.117188 141.542969 156.058594 137.335938 C 156.15625 137.25 156.257812 137.167969 156.339844 137.082031 C 160.363281 136.503906 164.386719 136.503906 168.410156 137.082031 C 168.507812 137.167969 168.59375 137.25 168.691406 137.347656 Z M 168.707031 137.347656 " fill-opacity="1" fill-rule="nonzero"/><path fill="#ffffff" d="M 156.074219 162.628906 C 159.785156 162.628906 163.515625 162.65625 167.230469 162.585938 C 168.355469 162.574219 168.761719 162.867188 168.734375 164.050781 C 168.664062 167.160156 168.664062 170.265625 168.734375 173.375 C 168.761719 174.558594 168.355469 174.867188 167.230469 174.839844 C 163.515625 174.78125 159.785156 174.8125 156.074219 174.796875 C 155.988281 174.699219 155.90625 174.613281 155.820312 174.515625 C 155.257812 170.632812 155.242188 166.765625 155.820312 162.882812 C 155.90625 162.785156 155.988281 162.699219 156.074219 162.601562 Z M 156.074219 162.628906 " fill-opacity="1" fill-rule="nonzero"/><path fill="#ffffff" d="M 143.90625 187.445312 C 143.90625 183.238281 143.890625 179.03125 143.875 174.824219 C 143.976562 174.742188 144.074219 174.65625 144.171875 174.558594 C 148.152344 174.109375 152.148438 173.644531 156.101562 174.839844 C 156.101562 174.839844 156.074219 174.8125 156.074219 174.8125 C 156.074219 178.453125 156.03125 182.113281 156.117188 185.753906 C 156.144531 187.050781 155.820312 187.515625 154.441406 187.484375 C 150.925781 187.386719 147.40625 187.445312 143.90625 187.445312 Z M 143.90625 187.445312 " fill-opacity="1" fill-rule="nonzero"/><path fill="#ffffff" d="M 143.875 162.613281 C 143.875 158.972656 143.917969 155.328125 143.847656 151.699219 C 143.820312 150.417969 144.144531 149.910156 145.523438 149.953125 C 149.023438 150.050781 152.527344 149.996094 156.03125 150.011719 C 156.046875 154.214844 156.058594 158.421875 156.074219 162.628906 C 156.074219 162.628906 156.101562 162.601562 156.101562 162.601562 C 155.835938 162.8125 155.566406 163.066406 155.230469 163.078125 C 151.542969 163.261719 147.84375 163.585938 144.171875 162.882812 C 144.074219 162.796875 143.976562 162.699219 143.875 162.613281 Z M 143.875 162.613281 " fill-opacity="1" fill-rule="nonzero"/><path fill="#2f6508" d="M 168.71875 87.648438 C 168.71875 70.949219 168.71875 54.265625 168.71875 37.566406 C 172.238281 37.566406 175.753906 37.652344 179.269531 37.511719 C 181.042969 37.441406 181.378906 38.117188 181.367188 39.734375 C 181.308594 51.496094 181.339844 63.269531 181.339844 75.03125 C 181.605469 75.339844 181.84375 75.707031 181.84375 76.113281 C 181.929688 79.871094 182.253906 83.625 181.675781 87.382812 C 181.5625 87.632812 181.378906 87.816406 181.140625 87.957031 C 177.355469 88.648438 173.558594 88.28125 169.761719 88.183594 C 169.351562 88.183594 169 87.929688 168.707031 87.648438 Z M 168.71875 87.648438 " fill-opacity="1" fill-rule="nonzero"/><path fill="#2f6508" d="M 193.5625 87.664062 C 193.5625 100.167969 193.5625 112.660156 193.5625 125.167969 C 193.253906 125.433594 192.886719 125.644531 192.480469 125.660156 C 188.863281 125.730469 185.25 126.039062 181.648438 125.476562 C 181.394531 125.363281 181.210938 125.179688 181.070312 124.941406 C 180.339844 120.917969 180.859375 116.867188 180.746094 112.816406 C 180.746094 112.675781 180.746094 112.546875 180.746094 112.40625 C 180.621094 104.910156 180.707031 97.410156 180.707031 89.925781 C 180.707031 89.113281 180.761719 88.296875 181.351562 87.648438 C 181.832031 87.226562 182.40625 87.058594 183.027344 87.042969 C 185.980469 86.972656 188.949219 86.972656 191.902344 87.042969 C 192.523438 87.058594 193.097656 87.226562 193.578125 87.664062 Z M 193.5625 87.664062 " fill-opacity="1" fill-rule="nonzero"/><path fill="#3e810c" d="M 193.5625 87.664062 C 189.484375 87.664062 185.417969 87.664062 181.339844 87.664062 C 181.339844 83.457031 181.339844 79.238281 181.339844 75.03125 C 184.839844 75.03125 188.34375 75.085938 191.847656 75.003906 C 193.183594 74.972656 193.605469 75.4375 193.578125 76.746094 C 193.507812 80.375 193.550781 84.019531 193.550781 87.664062 Z M 193.5625 87.664062 " fill-opacity="1" fill-rule="nonzero"/><path fill="#2f6508" d="M 230.953125 125.054688 C 226.902344 125.082031 222.851562 125.109375 218.8125 125.136719 C 218.8125 120.933594 218.8125 116.726562 218.8125 112.507812 C 219.082031 112.296875 219.347656 112.054688 219.6875 112.042969 C 223.371094 111.871094 227.058594 111.535156 230.730469 112.238281 C 230.828125 112.324219 230.925781 112.421875 231.023438 112.507812 Z M 230.953125 125.054688 " fill-opacity="1" fill-rule="nonzero"/><path fill="#2f6508" d="M 218.8125 125.125 C 218.8125 129.175781 218.8125 133.226562 218.8125 137.277344 C 214.609375 137.277344 210.402344 137.277344 206.195312 137.277344 C 206.195312 133.886719 206.28125 130.5 206.152344 127.121094 C 206.082031 125.449219 206.703125 125.054688 208.25 125.097656 C 211.765625 125.195312 215.296875 125.125 218.8125 125.125 Z M 218.8125 125.125 " fill-opacity="1" fill-rule="nonzero"/><path fill="#ffffff" d="M 181.339844 125.109375 C 185.402344 125.125 189.484375 125.152344 193.550781 125.167969 C 193.550781 129.203125 193.550781 133.242188 193.5625 137.277344 C 189.484375 137.292969 185.402344 137.320312 181.339844 137.335938 C 181.339844 137.335938 181.367188 137.363281 181.367188 137.363281 C 180.945312 136.886719 180.761719 136.308594 180.746094 135.6875 C 180.664062 132.722656 180.675781 129.753906 180.746094 126.769531 C 180.761719 126.164062 180.859375 125.5625 181.351562 125.109375 Z M 181.339844 125.109375 " fill-opacity="1" fill-rule="nonzero"/><path fill="#2f6508" d="M 143.875 99.859375 C 147.941406 99.859375 152.007812 99.875 156.074219 99.886719 C 156.777344 100.660156 156.707031 101.632812 156.71875 102.558594 C 156.75 104.980469 156.761719 107.414062 156.71875 109.832031 C 156.691406 111.296875 157.3125 111.886719 158.761719 111.859375 C 161.320312 111.816406 163.878906 111.832031 166.441406 111.859375 C 167.242188 111.859375 168.074219 111.859375 168.777344 112.367188 C 169.058594 112.675781 169.242188 113.054688 169.242188 113.460938 C 169.324219 117.246094 169.632812 121.03125 169.070312 124.800781 C 168.960938 125.054688 168.789062 125.238281 168.550781 125.390625 C 166.382812 126.09375 164.160156 125.671875 161.953125 125.742188 C 160.011719 125.800781 158.058594 125.8125 156.117188 125.714844 C 152.132812 125.644531 148.140625 126.054688 144.171875 125.476562 C 143.933594 125.378906 143.734375 125.210938 143.59375 124.984375 C 142.878906 122.945312 143.328125 120.835938 143.230469 118.753906 C 143.171875 117.613281 143.160156 116.445312 143.230469 115.304688 C 143.34375 113.617188 142.582031 113.027344 140.949219 113.082031 C 138.585938 113.167969 136.222656 113.109375 133.859375 113.082031 C 133.058594 113.082031 132.230469 113.125 131.484375 112.746094 C 131.382812 112.660156 131.300781 112.578125 131.203125 112.492188 C 131.203125 108.273438 131.214844 104.050781 131.230469 99.832031 C 131.328125 99.746094 131.425781 99.648438 131.523438 99.5625 C 135.648438 99.101562 139.769531 98.675781 143.863281 99.816406 Z M 143.875 99.859375 " fill-opacity="1" fill-rule="nonzero"/><path fill="#2f6508" d="M 131.242188 99.875 C 123.660156 99.875 116.078125 99.816406 108.484375 99.914062 C 106.753906 99.929688 106.273438 99.367188 106.359375 97.722656 C 106.484375 94.949219 106.332031 92.164062 106.414062 89.394531 C 106.457031 88.085938 106.035156 87.59375 104.683594 87.632812 C 101.773438 87.71875 98.859375 87.535156 95.949219 87.703125 C 94.078125 87.804688 93.65625 87.128906 93.726562 85.398438 C 93.851562 81.953125 93.769531 78.492188 93.769531 75.042969 C 102.054688 75.042969 110.339844 75.042969 118.613281 75.042969 C 119.300781 75.816406 119.246094 76.789062 119.246094 77.730469 C 119.273438 80.222656 119.246094 82.710938 119.246094 85.199219 C 119.246094 86.46875 119.792969 87.03125 121.074219 87.03125 C 123.5625 87.03125 126.054688 87.015625 128.542969 87.03125 C 129.484375 87.03125 130.441406 86.972656 131.230469 87.664062 C 131.664062 88.140625 131.835938 88.71875 131.847656 89.335938 C 131.917969 92.289062 131.917969 95.257812 131.847656 98.214844 C 131.835938 98.832031 131.664062 99.410156 131.230469 99.886719 Z M 131.242188 99.875 " fill-opacity="1" fill-rule="nonzero"/><path fill="#ffffff" d="M 118.613281 125.136719 C 118.613281 121.410156 118.652344 117.695312 118.582031 113.96875 C 118.570312 112.828125 118.878906 112.449219 120.046875 112.476562 C 123.761719 112.5625 127.488281 112.519531 131.214844 112.535156 C 131.539062 112.886719 131.792969 113.308594 131.792969 113.785156 C 131.835938 117.472656 132.171875 121.171875 131.59375 124.855469 C 131.484375 125.109375 131.300781 125.292969 131.0625 125.433594 C 127.277344 126.109375 123.480469 125.757812 119.679688 125.660156 C 119.273438 125.660156 118.921875 125.40625 118.613281 125.140625 Z M 118.613281 125.136719 " fill-opacity="1" fill-rule="nonzero"/><path fill="#2f6508" d="M 93.769531 75.03125 C 90.179688 75.03125 86.59375 74.988281 83.007812 75.058594 C 81.65625 75.085938 81.050781 74.75 81.105469 73.257812 C 81.207031 70.289062 81.175781 67.308594 81.105469 64.324219 C 81.09375 63.183594 81.5 62.777344 82.640625 62.792969 C 85.820312 62.847656 89 62.863281 92.179688 62.792969 C 93.472656 62.761719 93.78125 63.296875 93.769531 64.480469 C 93.710938 67.996094 93.753906 71.511719 93.738281 75.042969 Z M 93.769531 75.03125 " fill-opacity="1" fill-rule="nonzero"/><path fill="#2f6508" d="M 231.023438 99.875 C 231.054688 95.835938 231.09375 91.785156 231.125 87.746094 C 234.710938 87.71875 238.296875 87.621094 241.871094 87.691406 C 243.332031 87.71875 243.726562 87.199219 243.6875 85.820312 C 243.601562 82.90625 243.726562 79.996094 243.628906 77.097656 C 243.574219 75.550781 243.96875 74.933594 245.640625 75.003906 C 248.609375 75.144531 251.589844 74.988281 254.574219 75.058594 C 255.910156 75.101562 256.347656 74.648438 256.316406 73.3125 C 256.234375 70.542969 256.417969 67.757812 256.246094 65 C 256.136719 63.128906 256.824219 62.722656 258.554688 62.777344 C 261.859375 62.902344 265.179688 62.804688 268.5 62.804688 C 272.160156 62.804688 275.816406 62.847656 279.488281 62.804688 C 280.683594 62.792969 281.191406 63.128906 281.160156 64.410156 C 281.089844 67.460938 281.105469 70.515625 281.160156 73.554688 C 281.191406 74.734375 280.710938 75.074219 279.601562 75.058594 C 276.476562 75.015625 273.367188 75.101562 270.246094 75.015625 C 268.921875 74.988281 268.457031 75.425781 268.5 76.761719 C 268.585938 79.671875 268.445312 82.597656 268.558594 85.496094 C 268.628906 87.140625 268.191406 87.789062 266.433594 87.703125 C 263.660156 87.5625 260.875 87.734375 258.105469 87.632812 C 256.640625 87.578125 256.246094 88.128906 256.277344 89.503906 C 256.359375 92.417969 256.261719 95.328125 256.316406 98.242188 C 256.347656 99.464844 255.9375 99.914062 254.6875 99.886719 C 251.84375 99.816406 248.988281 99.984375 246.148438 99.832031 C 244.234375 99.71875 243.53125 100.238281 243.617188 102.265625 C 243.769531 105.640625 243.617188 109.03125 243.585938 112.421875 C 239.410156 112.449219 235.21875 112.464844 231.039062 112.492188 C 230.773438 112.183594 230.53125 111.832031 230.503906 111.421875 C 230.292969 107.921875 230.292969 104.429688 230.503906 100.929688 C 230.53125 100.519531 230.757812 100.167969 231.023438 99.84375 Z M 231.023438 99.875 " fill-opacity="1" fill-rule="nonzero"/><path fill="#fe4000" d="M 218.8125 337.359375 C 211.089844 337.359375 203.382812 337.304688 195.660156 337.402344 C 193.929688 337.417969 193.449219 336.882812 193.519531 335.210938 C 193.648438 332.4375 193.648438 329.652344 193.519531 326.882812 C 193.449219 325.222656 193.929688 324.671875 195.660156 324.6875 C 203.382812 324.769531 211.089844 324.730469 218.8125 324.730469 C 218.8125 328.933594 218.8125 333.140625 218.8125 337.347656 Z M 218.8125 337.359375 " fill-opacity="1" fill-rule="nonzero"/><path fill="#ffffff" d="M 143.875 174.8125 C 139.683594 174.8125 135.476562 174.796875 131.285156 174.78125 C 131.273438 171.210938 131.285156 167.636719 131.214844 164.0625 C 131.1875 162.882812 131.625 162.574219 132.734375 162.585938 C 136.449219 162.644531 140.164062 162.613281 143.863281 162.613281 L 143.847656 162.613281 C 144.269531 163.066406 144.453125 163.640625 144.46875 164.261719 C 144.550781 167.230469 144.550781 170.195312 144.46875 173.164062 C 144.453125 173.785156 144.269531 174.359375 143.847656 174.839844 L 143.863281 174.839844 Z M 143.875 174.8125 " fill-opacity="1" fill-rule="nonzero"/><path fill="#ffffff" d="M 143.875 137.292969 C 139.671875 137.308594 135.449219 137.320312 131.242188 137.335938 L 131.257812 137.335938 C 130.835938 136.886719 130.652344 136.308594 130.640625 135.6875 C 130.554688 132.722656 130.570312 129.765625 130.640625 126.796875 C 130.652344 126.179688 130.820312 125.601562 131.257812 125.125 C 131.679688 124.757812 132.171875 124.546875 132.722656 124.535156 C 135.957031 124.421875 139.179688 124.421875 142.414062 124.535156 C 142.960938 124.546875 143.46875 124.757812 143.863281 125.152344 C 144.1875 125.492188 144.425781 125.914062 144.453125 126.390625 C 144.609375 129.667969 144.636719 132.945312 144.425781 136.222656 C 144.398438 136.632812 144.199219 136.996094 143.890625 137.277344 Z M 143.875 137.292969 " fill-opacity="1" fill-rule="nonzero"/><path fill="#41860d" d="M 143.875 137.292969 C 143.875 133.242188 143.847656 129.191406 143.847656 125.152344 C 147.941406 125.152344 152.050781 125.152344 156.144531 125.152344 C 156.578125 125.632812 156.707031 126.222656 156.71875 126.828125 C 156.789062 129.710938 156.777344 132.582031 156.71875 135.464844 C 156.71875 136.140625 156.578125 136.800781 156.074219 137.308594 C 156.074219 137.308594 156.074219 137.320312 156.074219 137.320312 C 152.007812 137.320312 147.941406 137.292969 143.875 137.277344 Z M 143.875 137.292969 " fill-opacity="1" fill-rule="nonzero"/><path fill="#41860d" d="M 168.761719 112.519531 C 165.1875 112.519531 161.617188 112.449219 158.042969 112.535156 C 156.566406 112.578125 156.03125 112.15625 156.074219 110.605469 C 156.171875 107.035156 156.101562 103.460938 156.085938 99.886719 C 159.730469 99.886719 163.375 99.832031 167.019531 99.886719 C 168.339844 99.914062 168.789062 99.480469 168.761719 98.144531 C 168.691406 94.640625 168.746094 91.125 168.761719 87.621094 C 172.96875 87.621094 177.175781 87.621094 181.378906 87.621094 C 181.378906 95.921875 181.367188 104.21875 181.351562 112.519531 C 180.875 112.957031 180.296875 113.082031 179.679688 113.097656 C 176.597656 113.167969 173.53125 113.167969 170.449219 113.097656 C 169.84375 113.082031 169.253906 112.957031 168.789062 112.507812 Z M 168.761719 112.519531 " fill-opacity="1" fill-rule="nonzero"/><path fill="#41860d" d="M 131.242188 99.886719 C 131.242188 95.808594 131.242188 91.742188 131.242188 87.664062 C 135.4375 87.675781 139.628906 87.703125 143.804688 87.71875 C 143.835938 91.769531 143.847656 95.808594 143.875 99.859375 C 139.671875 99.859375 135.449219 99.859375 131.242188 99.875 Z M 131.242188 99.886719 " fill-opacity="1" fill-rule="nonzero"/><path fill="#41860d" d="M 131.242188 87.664062 C 127.601562 87.664062 123.972656 87.621094 120.328125 87.691406 C 119.003906 87.71875 118.570312 87.28125 118.597656 85.960938 C 118.667969 82.316406 118.625 78.6875 118.625 75.042969 C 122.816406 75.058594 127.007812 75.085938 131.1875 75.101562 C 131.203125 79.292969 131.230469 83.484375 131.242188 87.664062 Z M 131.242188 87.664062 " fill-opacity="1" fill-rule="nonzero"/><path fill="#fec800" d="M 131.242188 125.125 C 131.242188 129.203125 131.242188 133.285156 131.242188 137.363281 C 127.050781 137.347656 122.84375 137.320312 118.652344 137.308594 C 118.640625 133.253906 118.625 129.191406 118.597656 125.136719 L 131.230469 125.136719 Z M 131.242188 125.125 " fill-opacity="1" fill-rule="nonzero"/><path fill="#41860d" d="M 231.023438 99.875 C 231.023438 104.078125 231.023438 108.300781 231.039062 112.507812 C 226.960938 112.507812 222.894531 112.507812 218.8125 112.507812 C 218.828125 108.3125 218.855469 104.121094 218.871094 99.945312 C 222.921875 99.914062 226.960938 99.902344 231.011719 99.875 Z M 231.023438 99.875 " fill-opacity="1" fill-rule="nonzero"/><path fill="#fec800" d="M 181.339844 125.109375 C 181.339844 129.191406 181.339844 133.285156 181.339844 137.363281 C 177.117188 137.363281 172.910156 137.363281 168.691406 137.347656 C 168.691406 137.347656 168.707031 137.378906 168.707031 137.378906 C 168.285156 136.898438 168.101562 136.324219 168.085938 135.703125 C 168.003906 132.734375 168.015625 129.765625 168.085938 126.785156 C 168.101562 126.164062 168.285156 125.589844 168.707031 125.109375 L 168.675781 125.136719 C 169.101562 124.773438 169.605469 124.5625 170.15625 124.535156 C 173.390625 124.421875 176.640625 124.421875 179.875 124.535156 C 180.425781 124.546875 180.929688 124.773438 181.351562 125.136719 L 181.324219 125.109375 Z M 181.339844 125.109375 " fill-opacity="1" fill-rule="nonzero"/><path fill="#ffffff" d="M 168.71875 125.109375 C 168.71875 129.203125 168.71875 133.285156 168.71875 137.378906 C 164.5 137.363281 160.28125 137.335938 156.058594 137.320312 C 156.085938 133.269531 156.101562 129.21875 156.128906 125.167969 C 160.320312 125.152344 164.511719 125.136719 168.71875 125.109375 Z M 168.71875 125.109375 " fill-opacity="1" fill-rule="nonzero"/><path fill="#fec800" d="M 143.863281 174.839844 C 143.863281 170.757812 143.863281 166.679688 143.863281 162.601562 C 147.941406 162.601562 152.023438 162.601562 156.101562 162.601562 C 156.101562 166.679688 156.101562 170.757812 156.101562 174.839844 C 152.023438 174.839844 147.941406 174.839844 143.863281 174.839844 Z M 143.863281 174.839844 " fill-opacity="1" fill-rule="nonzero"/><path fill="#ffffff" d="M 181.367188 125.136719 L 168.691406 125.136719 C 168.71875 120.933594 168.734375 116.726562 168.761719 112.519531 C 172.953125 112.519531 177.132812 112.535156 181.324219 112.546875 C 181.339844 116.742188 181.351562 120.933594 181.378906 125.136719 Z M 181.367188 125.136719 " fill-opacity="1" fill-rule="nonzero"/><path fill="#41860d" d="M 143.847656 125.167969 C 139.640625 125.167969 135.4375 125.152344 131.242188 125.136719 C 131.242188 120.933594 131.230469 116.726562 131.214844 112.535156 C 134.859375 112.535156 138.515625 112.5625 142.160156 112.492188 C 143.484375 112.464844 143.933594 112.898438 143.90625 114.238281 C 143.835938 117.878906 143.863281 121.539062 143.863281 125.179688 Z M 143.847656 125.167969 " fill-opacity="1" fill-rule="nonzero"/></svg>