<svg xmlns="http://www.w3.org/2000/svg" xmlns:xlink="http://www.w3.org/1999/xlink" width="500" zoomAndPan="magnify" viewBox="0 0 375 374.999991" height="500" preserveAspectRatio="xMidYMid meet" version="1.0"><defs><clipPath id="6e3384d0af"><path d="M 87.738281 0 L 281.988281 0 L 281.988281 375 L 87.738281 375 Z M 87.738281 0 " clip-rule="nonzero"/></clipPath><clipPath id="1935ba3a6c"><path d="M 87.738281 208 L 281.988281 208 L 281.988281 306 L 87.738281 306 Z M 87.738281 208 " clip-rule="nonzero"/></clipPath><clipPath id="4cbaee97dc"><path d="M 87.738281 125 L 281.988281 125 L 281.988281 237 L 87.738281 237 Z M 87.738281 125 " clip-rule="nonzero"/></clipPath><clipPath id="0d781398a4"><path d="M 87.738281 0 L 281.988281 0 L 281.988281 139 L 87.738281 139 Z M 87.738281 0 " clip-rule="nonzero"/></clipPath><clipPath id="a996a5a2f4"><path d="M 87.738281 138 L 102 138 L 102 167 L 87.738281 167 Z M 87.738281 138 " clip-rule="nonzero"/></clipPath><clipPath id="d67b6f0cdb"><path d="M 87.738281 125 L 116 125 L 116 139 L 87.738281 139 Z M 87.738281 125 " clip-rule="nonzero"/></clipPath><clipPath id="524c5bee9e"><path d="M 254 125 L 281.988281 125 L 281.988281 167 L 254 167 Z M 254 125 " clip-rule="nonzero"/></clipPath><clipPath id="7de34831e3"><path d="M 87.738281 249 L 102 249 L 102 306 L 87.738281 306 Z M 87.738281 249 " clip-rule="nonzero"/></clipPath><clipPath id="6d72741dfc"><path d="M 268 249 L 281.988281 249 L 281.988281 306 L 268 306 Z M 268 249 " clip-rule="nonzero"/></clipPath><clipPath id="3352a10888"><path d="M 87.738281 27 L 102 27 L 102 139 L 87.738281 139 Z M 87.738281 27 " clip-rule="nonzero"/></clipPath><clipPath id="40fee470c6"><path d="M 240 14 L 281.988281 14 L 281.988281 126 L 240 126 Z M 240 14 " clip-rule="nonzero"/></clipPath></defs><g clip-path="url(#6e3384d0af)"><path fill="#160059" d="M 268.113281 41.769531 L 268.113281 14.011719 L 254.238281 14.011719 L 254.238281 0.132812 L 240.363281 0.132812 L 240.363281 14.011719 L 198.738281 14.011719 L 198.738281 0.132812 L 184.863281 0.132812 L 184.863281 14.011719 L 170.988281 14.011719 L 170.988281 0.132812 L 157.113281 0.132812 L 157.113281 14.011719 L 143.238281 14.011719 L 143.238281 27.890625 L 115.488281 27.890625 L 115.488281 14.011719 L 101.613281 14.011719 L 101.613281 27.890625 L 87.738281 27.890625 L 87.738281 166.679688 L 101.613281 166.679688 L 101.613281 180.558594 L 115.488281 180.558594 L 115.488281 208.320312 L 101.613281 208.320312 L 101.613281 249.957031 L 87.738281 249.957031 L 87.738281 305.472656 L 101.613281 305.472656 L 101.613281 319.351562 L 115.488281 319.351562 L 115.488281 347.109375 L 101.613281 347.109375 L 101.613281 374.867188 L 170.988281 374.867188 L 170.988281 347.109375 L 198.738281 347.109375 L 198.738281 374.867188 L 268.113281 374.867188 L 268.113281 347.109375 L 254.238281 347.109375 L 254.238281 319.351562 L 268.113281 319.351562 L 268.113281 305.472656 L 281.988281 305.472656 L 281.988281 249.957031 L 268.113281 249.957031 L 268.113281 208.320312 L 254.238281 208.320312 L 254.238281 180.558594 L 268.113281 180.558594 L 268.113281 166.679688 L 281.988281 166.679688 L 281.988281 41.769531 Z M 268.113281 41.769531 " fill-opacity="1" fill-rule="nonzero"/></g><g clip-path="url(#1935ba3a6c)"><path fill="#002af9" d="M 268.113281 249.957031 L 268.113281 208.320312 L 101.613281 208.320312 L 101.613281 249.957031 L 87.738281 249.957031 L 87.738281 305.472656 L 281.988281 305.472656 L 281.988281 249.957031 Z M 268.113281 249.957031 " fill-opacity="1" fill-rule="nonzero"/></g><g clip-path="url(#4cbaee97dc)"><path fill="#ffc487" d="M 87.738281 125.042969 L 87.738281 166.679688 L 115.488281 166.679688 L 115.488281 208.320312 L 170.988281 208.320312 L 170.988281 236.078125 L 198.738281 236.078125 L 198.738281 208.320312 L 254.238281 208.320312 L 254.238281 166.679688 L 281.988281 166.679688 L 281.988281 125.042969 Z M 87.738281 125.042969 " fill-opacity="1" fill-rule="nonzero"/></g><g clip-path="url(#0d781398a4)"><path fill="#e66d00" d="M 101.613281 27.890625 L 101.613281 14.011719 L 115.488281 14.011719 L 115.488281 27.890625 L 143.238281 27.890625 L 143.238281 14.011719 L 157.113281 14.011719 L 157.113281 0.132812 L 170.988281 0.132812 L 170.988281 14.011719 L 184.863281 14.011719 L 184.863281 0.132812 L 198.738281 0.132812 L 198.738281 14.011719 L 240.363281 14.011719 L 240.363281 0.132812 L 254.238281 0.132812 L 254.238281 14.011719 L 268.113281 14.011719 L 268.113281 41.769531 L 281.988281 41.769531 L 281.988281 125.042969 L 268.113281 125.042969 L 268.113281 138.921875 L 240.363281 138.921875 L 240.363281 125.042969 L 129.363281 125.042969 L 129.363281 138.921875 L 101.613281 138.921875 L 101.613281 125.042969 L 87.738281 125.042969 L 87.738281 27.890625 Z M 101.613281 27.890625 " fill-opacity="1" fill-rule="nonzero"/></g><g clip-path="url(#a996a5a2f4)"><path fill="#160059" d="M 87.738281 138.921875 L 101.613281 138.921875 L 101.613281 166.679688 L 87.738281 166.679688 Z M 87.738281 138.921875 " fill-opacity="1" fill-rule="nonzero"/></g><g clip-path="url(#d67b6f0cdb)"><path fill="#160059" d="M 87.738281 125.042969 L 115.488281 125.042969 L 115.488281 138.921875 L 87.738281 138.921875 Z M 87.738281 125.042969 " fill-opacity="1" fill-rule="nonzero"/></g><g clip-path="url(#524c5bee9e)"><path fill="#160059" d="M 268.113281 125.042969 L 254.238281 125.042969 L 254.238281 138.921875 L 268.113281 138.921875 L 268.113281 166.679688 L 281.988281 166.679688 L 281.988281 125.042969 Z M 268.113281 125.042969 " fill-opacity="1" fill-rule="nonzero"/></g><path fill="#160059" d="M 254.238281 166.679688 L 268.113281 166.679688 L 268.113281 180.558594 L 254.238281 180.558594 Z M 254.238281 166.679688 " fill-opacity="1" fill-rule="nonzero"/><path fill="#160059" d="M 101.613281 166.679688 L 115.488281 166.679688 L 115.488281 180.558594 L 101.613281 180.558594 Z M 101.613281 166.679688 " fill-opacity="1" fill-rule="nonzero"/><path fill="#160059" d="M 129.363281 194.441406 L 129.363281 180.558594 L 115.488281 180.558594 L 115.488281 208.320312 L 143.238281 208.320312 L 143.238281 194.441406 Z M 129.363281 194.441406 " fill-opacity="1" fill-rule="nonzero"/><path fill="#160059" d="M 240.363281 180.558594 L 240.363281 194.441406 L 226.488281 194.441406 L 226.488281 208.320312 L 254.238281 208.320312 L 254.238281 180.558594 Z M 240.363281 180.558594 " fill-opacity="1" fill-rule="nonzero"/><path fill="#160059" d="M 143.238281 208.320312 L 170.988281 208.320312 L 170.988281 222.199219 L 143.238281 222.199219 Z M 143.238281 208.320312 " fill-opacity="1" fill-rule="nonzero"/><path fill="#160059" d="M 198.738281 208.320312 L 226.488281 208.320312 L 226.488281 222.199219 L 198.738281 222.199219 Z M 198.738281 208.320312 " fill-opacity="1" fill-rule="nonzero"/><path fill="#160059" d="M 198.738281 138.921875 L 226.488281 138.921875 L 226.488281 152.800781 L 198.738281 152.800781 Z M 198.738281 138.921875 " fill-opacity="1" fill-rule="nonzero"/><path fill="#160059" d="M 143.238281 138.921875 L 170.988281 138.921875 L 170.988281 152.800781 L 143.238281 152.800781 Z M 143.238281 138.921875 " fill-opacity="1" fill-rule="nonzero"/><path fill="#0a3f3e" d="M 157.113281 152.800781 L 170.988281 152.800781 L 170.988281 166.679688 L 157.113281 166.679688 Z M 157.113281 152.800781 " fill-opacity="1" fill-rule="nonzero"/><path fill="#0a3f3e" d="M 198.738281 152.800781 L 212.613281 152.800781 L 212.613281 166.679688 L 198.738281 166.679688 Z M 198.738281 152.800781 " fill-opacity="1" fill-rule="nonzero"/><path fill="#160059" d="M 157.113281 208.320312 L 170.988281 208.320312 L 170.988281 236.078125 L 157.113281 236.078125 Z M 157.113281 208.320312 " fill-opacity="1" fill-rule="nonzero"/><path fill="#160059" d="M 198.738281 208.320312 L 212.613281 208.320312 L 212.613281 236.078125 L 198.738281 236.078125 Z M 198.738281 208.320312 " fill-opacity="1" fill-rule="nonzero"/><path fill="#160059" d="M 170.988281 236.078125 L 198.738281 236.078125 L 198.738281 249.957031 L 170.988281 249.957031 Z M 170.988281 236.078125 " fill-opacity="1" fill-rule="nonzero"/><path fill="#160059" d="M 170.988281 208.320312 L 198.738281 208.320312 L 198.738281 222.199219 L 170.988281 222.199219 Z M 170.988281 208.320312 " fill-opacity="0.5" fill-rule="nonzero"/><path fill="#160059" d="M 143.238281 194.441406 L 226.488281 194.441406 L 226.488281 208.320312 L 143.238281 208.320312 Z M 143.238281 194.441406 " fill-opacity="0.1" fill-rule="nonzero"/><path fill="#0a3f3e" d="M 254.238281 347.109375 L 254.238281 305.472656 L 115.488281 305.472656 L 115.488281 347.109375 L 101.613281 347.109375 L 101.613281 374.867188 L 170.988281 374.867188 L 170.988281 347.109375 L 198.738281 347.109375 L 198.738281 374.867188 L 268.113281 374.867188 L 268.113281 347.109375 Z M 254.238281 347.109375 " fill-opacity="1" fill-rule="nonzero"/><path fill="#ffc487" d="M 115.488281 277.714844 L 101.613281 277.714844 L 101.613281 305.472656 L 115.488281 305.472656 L 115.488281 291.59375 L 129.363281 291.59375 L 129.363281 277.714844 Z M 115.488281 277.714844 " fill-opacity="1" fill-rule="nonzero"/><path fill="#ffc487" d="M 254.238281 277.714844 L 240.363281 277.714844 L 240.363281 291.59375 L 254.238281 291.59375 L 254.238281 305.472656 L 268.113281 305.472656 L 268.113281 277.714844 Z M 254.238281 277.714844 " fill-opacity="1" fill-rule="nonzero"/><path fill="#160059" d="M 101.613281 208.320312 L 115.488281 208.320312 L 115.488281 249.957031 L 101.613281 249.957031 Z M 101.613281 208.320312 " fill-opacity="1" fill-rule="nonzero"/><g clip-path="url(#7de34831e3)"><path fill="#160059" d="M 87.738281 249.957031 L 101.613281 249.957031 L 101.613281 305.472656 L 87.738281 305.472656 Z M 87.738281 249.957031 " fill-opacity="1" fill-rule="nonzero"/></g><path fill="#160059" d="M 101.613281 305.472656 L 115.488281 305.472656 L 115.488281 319.351562 L 101.613281 319.351562 Z M 101.613281 305.472656 " fill-opacity="1" fill-rule="nonzero"/><path fill="#160059" d="M 254.238281 305.472656 L 268.113281 305.472656 L 268.113281 319.351562 L 254.238281 319.351562 Z M 254.238281 305.472656 " fill-opacity="1" fill-rule="nonzero"/><g clip-path="url(#6d72741dfc)"><path fill="#160059" d="M 268.113281 249.957031 L 281.988281 249.957031 L 281.988281 305.472656 L 268.113281 305.472656 Z M 268.113281 249.957031 " fill-opacity="0.5" fill-rule="nonzero"/></g><path fill="#160059" d="M 115.488281 263.835938 L 115.488281 277.714844 L 129.363281 277.714844 L 129.363281 291.59375 L 115.488281 291.59375 L 115.488281 305.472656 L 143.238281 305.472656 L 143.238281 263.835938 Z M 115.488281 263.835938 " fill-opacity="1" fill-rule="nonzero"/><path fill="#160059" d="M 254.238281 277.714844 L 254.238281 263.835938 L 226.488281 263.835938 L 226.488281 305.472656 L 254.238281 305.472656 L 254.238281 291.59375 L 240.363281 291.59375 L 240.363281 277.714844 Z M 254.238281 277.714844 " fill-opacity="1" fill-rule="nonzero"/><path fill="#160059" d="M 115.488281 208.320312 L 143.238281 208.320312 L 143.238281 222.199219 L 115.488281 222.199219 Z M 115.488281 208.320312 " fill-opacity="0.5" fill-rule="nonzero"/><path fill="#160059" d="M 254.238281 208.320312 L 226.488281 208.320312 L 226.488281 222.199219 L 254.238281 222.199219 L 254.238281 249.957031 L 268.113281 249.957031 L 268.113281 208.320312 Z M 254.238281 208.320312 " fill-opacity="0.5" fill-rule="nonzero"/><path fill="#160059" d="M 115.488281 208.320312 L 129.363281 208.320312 L 129.363281 222.199219 L 115.488281 222.199219 Z M 115.488281 208.320312 " fill-opacity="0.5" fill-rule="nonzero"/><path fill="#160059" d="M 226.488281 208.320312 L 240.363281 208.320312 L 240.363281 222.199219 L 226.488281 222.199219 Z M 226.488281 208.320312 " fill-opacity="0.5" fill-rule="nonzero"/><path fill="#160059" d="M 115.488281 305.472656 L 170.988281 305.472656 L 170.988281 319.351562 L 115.488281 319.351562 Z M 115.488281 305.472656 " fill-opacity="0.3" fill-rule="nonzero"/><path fill="#160059" d="M 115.488281 291.59375 L 129.363281 291.59375 L 129.363281 347.109375 L 115.488281 347.109375 Z M 115.488281 291.59375 " fill-opacity="1" fill-rule="nonzero"/><path fill="#160059" d="M 101.613281 347.109375 L 115.488281 347.109375 L 115.488281 374.867188 L 101.613281 374.867188 Z M 101.613281 347.109375 " fill-opacity="1" fill-rule="nonzero"/><path fill="#160059" d="M 170.988281 333.230469 L 198.738281 333.230469 L 198.738281 347.109375 L 170.988281 347.109375 Z M 170.988281 333.230469 " fill-opacity="1" fill-rule="nonzero"/><path fill="#160059" d="M 157.113281 347.109375 L 170.988281 347.109375 L 170.988281 374.867188 L 157.113281 374.867188 Z M 157.113281 347.109375 " fill-opacity="1" fill-rule="nonzero"/><path fill="#160059" d="M 198.738281 347.109375 L 212.613281 347.109375 L 212.613281 374.867188 L 198.738281 374.867188 Z M 198.738281 347.109375 " fill-opacity="1" fill-rule="nonzero"/><path fill="#160059" d="M 240.363281 305.472656 L 198.738281 305.472656 L 198.738281 319.351562 L 240.363281 319.351562 L 240.363281 347.109375 L 254.238281 347.109375 L 254.238281 305.472656 Z M 240.363281 305.472656 " fill-opacity="0.5" fill-rule="nonzero"/><path fill="#160059" d="M 254.238281 347.109375 L 268.113281 347.109375 L 268.113281 374.867188 L 254.238281 374.867188 Z M 254.238281 347.109375 " fill-opacity="1" fill-rule="nonzero"/><path fill="#160059" d="M 143.238281 347.109375 L 115.488281 347.109375 L 115.488281 360.988281 L 143.238281 360.988281 L 143.238281 374.867188 L 157.113281 374.867188 L 157.113281 347.109375 Z M 143.238281 347.109375 " fill-opacity="0.3" fill-rule="nonzero"/><path fill="#160059" d="M 226.488281 347.109375 L 254.238281 347.109375 L 254.238281 360.988281 L 226.488281 360.988281 L 226.488281 374.867188 L 212.613281 374.867188 L 212.613281 347.109375 Z M 226.488281 347.109375 " fill-opacity="0.3" fill-rule="nonzero"/><path fill="#160059" d="M 143.238281 249.957031 L 157.113281 249.957031 L 157.113281 277.714844 L 143.238281 277.714844 Z M 143.238281 249.957031 " fill-opacity="0.5" fill-rule="nonzero"/><path fill="#160059" d="M 212.613281 249.957031 L 226.488281 249.957031 L 226.488281 277.714844 L 212.613281 277.714844 Z M 212.613281 249.957031 " fill-opacity="0.5" fill-rule="nonzero"/><path fill="#160059" d="M 129.363281 125.042969 L 240.363281 125.042969 L 240.363281 138.921875 L 129.363281 138.921875 Z M 129.363281 125.042969 " fill-opacity="0.2" fill-rule="nonzero"/><path fill="#160059" d="M 101.613281 138.921875 L 115.488281 138.921875 L 115.488281 166.679688 L 101.613281 166.679688 Z M 101.613281 138.921875 " fill-opacity="0.2" fill-rule="nonzero"/><path fill="#160059" d="M 115.488281 166.679688 L 129.363281 166.679688 L 129.363281 180.558594 L 115.488281 180.558594 Z M 115.488281 166.679688 " fill-opacity="0.2" fill-rule="nonzero"/><path fill="#160059" d="M 240.363281 166.679688 L 254.238281 166.679688 L 254.238281 180.558594 L 240.363281 180.558594 Z M 240.363281 166.679688 " fill-opacity="0.2" fill-rule="nonzero"/><path fill="#160059" d="M 226.488281 180.558594 L 240.363281 180.558594 L 240.363281 194.441406 L 226.488281 194.441406 Z M 226.488281 180.558594 " fill-opacity="0.2" fill-rule="nonzero"/><path fill="#160059" d="M 129.363281 180.558594 L 143.238281 180.558594 L 143.238281 194.441406 L 129.363281 194.441406 Z M 129.363281 180.558594 " fill-opacity="0.2" fill-rule="nonzero"/><path fill="#160059" d="M 254.238281 138.921875 L 268.113281 138.921875 L 268.113281 166.679688 L 254.238281 166.679688 Z M 254.238281 138.921875 " fill-opacity="0.2" fill-rule="nonzero"/><path fill="#160059" d="M 240.363281 111.164062 L 129.363281 111.164062 L 129.363281 138.921875 L 143.238281 138.921875 L 143.238281 125.042969 L 226.488281 125.042969 L 226.488281 138.921875 L 240.363281 138.921875 Z M 240.363281 111.164062 " fill-opacity="1" fill-rule="nonzero"/><path fill="#160059" d="M 115.488281 138.921875 L 129.363281 138.921875 L 129.363281 152.800781 L 115.488281 152.800781 Z M 115.488281 138.921875 " fill-opacity="1" fill-rule="nonzero"/><path fill="#160059" d="M 240.363281 138.921875 L 254.238281 138.921875 L 254.238281 152.800781 L 240.363281 152.800781 Z M 240.363281 138.921875 " fill-opacity="1" fill-rule="nonzero"/><g clip-path="url(#3352a10888)"><path fill="#160059" d="M 87.738281 27.890625 L 101.613281 27.890625 L 101.613281 138.921875 L 87.738281 138.921875 Z M 87.738281 27.890625 " fill-opacity="1" fill-rule="nonzero"/></g><path fill="#160059" d="M 101.613281 14.011719 L 115.488281 14.011719 L 115.488281 27.890625 L 101.613281 27.890625 Z M 101.613281 14.011719 " fill-opacity="1" fill-rule="nonzero"/><path fill="#160059" d="M 115.488281 27.890625 L 143.238281 27.890625 L 143.238281 41.769531 L 115.488281 41.769531 Z M 115.488281 27.890625 " fill-opacity="1" fill-rule="nonzero"/><path fill="#160059" d="M 143.238281 14.011719 L 157.113281 14.011719 L 157.113281 27.890625 L 143.238281 27.890625 Z M 143.238281 14.011719 " fill-opacity="1" fill-rule="nonzero"/><path fill="#160059" d="M 157.113281 0.132812 L 170.988281 0.132812 L 170.988281 14.011719 L 157.113281 14.011719 Z M 157.113281 0.132812 " fill-opacity="1" fill-rule="nonzero"/><path fill="#160059" d="M 170.988281 14.011719 L 184.863281 14.011719 L 184.863281 27.890625 L 170.988281 27.890625 Z M 170.988281 14.011719 " fill-opacity="0.5" fill-rule="nonzero"/><path fill="#160059" d="M 240.363281 0.132812 L 254.238281 0.132812 L 254.238281 14.011719 L 240.363281 14.011719 Z M 240.363281 0.132812 " fill-opacity="0.5" fill-rule="nonzero"/><path fill="#160059" d="M 184.863281 0.132812 L 198.738281 0.132812 L 198.738281 14.011719 L 184.863281 14.011719 Z M 184.863281 0.132812 " fill-opacity="0.5" fill-rule="nonzero"/><path fill="#160059" d="M 198.738281 14.011719 L 240.363281 14.011719 L 240.363281 27.890625 L 198.738281 27.890625 Z M 198.738281 14.011719 " fill-opacity="0.5" fill-rule="nonzero"/><path fill="#160059" d="M 115.488281 41.769531 L 115.488281 69.527344 L 129.363281 69.527344 L 129.363281 55.648438 L 143.238281 55.648438 L 143.238281 41.769531 Z M 115.488281 41.769531 " fill-opacity="0.5" fill-rule="nonzero"/><path fill="#160059" d="M 101.613281 69.527344 L 115.488281 69.527344 L 115.488281 83.40625 L 101.613281 83.40625 Z M 101.613281 69.527344 " fill-opacity="1" fill-rule="nonzero"/><path fill="#160059" d="M 143.238281 55.648438 L 157.113281 55.648438 L 157.113281 69.527344 L 143.238281 69.527344 Z M 143.238281 55.648438 " fill-opacity="1" fill-rule="nonzero"/><path fill="#160059" d="M 198.738281 97.285156 L 212.613281 97.285156 L 212.613281 125.042969 L 198.738281 125.042969 Z M 198.738281 97.285156 " fill-opacity="1" fill-rule="nonzero"/><path fill="#160059" d="M 212.613281 69.527344 L 226.488281 69.527344 L 226.488281 97.285156 L 212.613281 97.285156 Z M 212.613281 69.527344 " fill-opacity="0.5" fill-rule="nonzero"/><path fill="#160059" d="M 157.113281 97.285156 L 170.988281 97.285156 L 170.988281 125.042969 L 157.113281 125.042969 Z M 157.113281 97.285156 " fill-opacity="1" fill-rule="nonzero"/><path fill="#160059" d="M 129.363281 83.40625 L 143.238281 83.40625 L 143.238281 97.285156 L 129.363281 97.285156 Z M 129.363281 83.40625 " fill-opacity="0.3" fill-rule="nonzero"/><path fill="#160059" d="M 184.863281 27.890625 L 198.738281 27.890625 L 198.738281 41.769531 L 184.863281 41.769531 Z M 184.863281 27.890625 " fill-opacity="0.3" fill-rule="nonzero"/><path fill="#160059" d="M 157.113281 55.648438 L 170.988281 55.648438 L 170.988281 69.527344 L 157.113281 69.527344 Z M 157.113281 55.648438 " fill-opacity="0.3" fill-rule="nonzero"/><path fill="#160059" d="M 143.238281 27.890625 L 157.113281 27.890625 L 157.113281 41.769531 L 143.238281 41.769531 Z M 143.238281 27.890625 " fill-opacity="0.3" fill-rule="nonzero"/><path fill="#160059" d="M 170.988281 69.527344 L 184.863281 69.527344 L 184.863281 83.40625 L 170.988281 83.40625 Z M 170.988281 69.527344 " fill-opacity="0.1" fill-rule="nonzero"/><path fill="#160059" d="M 157.113281 41.769531 L 170.988281 41.769531 L 170.988281 55.648438 L 157.113281 55.648438 Z M 157.113281 41.769531 " fill-opacity="0.1" fill-rule="nonzero"/><path fill="#160059" d="M 101.613281 41.769531 L 115.488281 41.769531 L 115.488281 55.648438 L 101.613281 55.648438 Z M 101.613281 41.769531 " fill-opacity="0.1" fill-rule="nonzero"/><path fill="#160059" d="M 157.113281 83.40625 L 170.988281 83.40625 L 170.988281 97.285156 L 157.113281 97.285156 Z M 157.113281 83.40625 " fill-opacity="0.1" fill-rule="nonzero"/><path fill="#160059" d="M 184.863281 83.40625 L 198.738281 83.40625 L 198.738281 97.285156 L 184.863281 97.285156 Z M 184.863281 83.40625 " fill-opacity="0.1" fill-rule="nonzero"/><path fill="#160059" d="M 226.488281 97.285156 L 240.363281 97.285156 L 240.363281 111.164062 L 226.488281 111.164062 Z M 226.488281 97.285156 " fill-opacity="0.1" fill-rule="nonzero"/><path fill="#160059" d="M 240.363281 69.527344 L 254.238281 69.527344 L 254.238281 83.40625 L 240.363281 83.40625 Z M 240.363281 69.527344 " fill-opacity="0.1" fill-rule="nonzero"/><path fill="#160059" d="M 240.363281 125.042969 L 254.238281 125.042969 L 254.238281 138.921875 L 240.363281 138.921875 Z M 240.363281 125.042969 " fill-opacity="0.3" fill-rule="nonzero"/><g clip-path="url(#40fee470c6)"><path fill="#160059" d="M 268.113281 41.769531 L 268.113281 14.011719 L 254.238281 14.011719 L 254.238281 55.648438 L 268.113281 55.648438 L 268.113281 83.40625 L 254.238281 83.40625 L 254.238281 97.285156 L 240.363281 97.285156 L 240.363281 111.164062 L 268.113281 111.164062 L 268.113281 125.042969 L 281.988281 125.042969 L 281.988281 41.769531 Z M 268.113281 41.769531 " fill-opacity="0.5" fill-rule="nonzero"/></g><path fill="#160059" d="M 184.863281 55.648438 L 198.738281 55.648438 L 198.738281 69.527344 L 184.863281 69.527344 Z M 184.863281 55.648438 " fill-opacity="0.3" fill-rule="nonzero"/><path fill="#160059" d="M 198.738281 69.527344 L 212.613281 69.527344 L 212.613281 83.40625 L 198.738281 83.40625 Z M 198.738281 69.527344 " fill-opacity="0.3" fill-rule="nonzero"/><path fill="#160059" d="M 101.613281 97.285156 L 115.488281 97.285156 L 115.488281 111.164062 L 101.613281 111.164062 Z M 101.613281 97.285156 " fill-opacity="0.3" fill-rule="nonzero"/><path fill="#160059" d="M 226.488281 27.890625 L 240.363281 27.890625 L 240.363281 41.769531 L 226.488281 41.769531 Z M 226.488281 27.890625 " fill-opacity="0.3" fill-rule="nonzero"/><path fill="#160059" d="M 212.613281 41.769531 L 226.488281 41.769531 L 226.488281 55.648438 L 212.613281 55.648438 Z M 212.613281 41.769531 " fill-opacity="0.3" fill-rule="nonzero"/><path fill="#160059" d="M 254.238281 138.921875 L 268.113281 138.921875 L 268.113281 152.800781 L 254.238281 152.800781 Z M 254.238281 138.921875 " fill-opacity="0.3" fill-rule="nonzero"/><path fill="#160059" d="M 212.613281 125.042969 L 226.488281 125.042969 L 226.488281 138.921875 L 212.613281 138.921875 Z M 212.613281 125.042969 " fill-opacity="0.3" fill-rule="nonzero"/><path fill="#160059" d="M 143.238281 125.042969 L 157.113281 125.042969 L 157.113281 138.921875 L 143.238281 138.921875 Z M 143.238281 125.042969 " fill-opacity="0.3" fill-rule="nonzero"/><path fill="#160059" d="M 101.613281 138.921875 L 115.488281 138.921875 L 115.488281 152.800781 L 101.613281 152.800781 Z M 101.613281 138.921875 " fill-opacity="0.3" fill-rule="nonzero"/><path fill="#160059" d="M 143.238281 97.285156 L 157.113281 97.285156 L 157.113281 111.164062 L 143.238281 111.164062 Z M 143.238281 97.285156 " fill-opacity="0.3" fill-rule="nonzero"/><path fill="#160059" d="M 115.488281 111.164062 L 129.363281 111.164062 L 129.363281 125.042969 L 115.488281 125.042969 Z M 115.488281 111.164062 " fill-opacity="0.3" fill-rule="nonzero"/><path fill="#160059" d="M 101.613281 360.988281 L 170.988281 360.988281 L 170.988281 374.867188 L 101.613281 374.867188 Z M 101.613281 360.988281 " fill-opacity="1" fill-rule="nonzero"/><path fill="#160059" d="M 198.738281 360.988281 L 268.113281 360.988281 L 268.113281 374.867188 L 198.738281 374.867188 Z M 198.738281 360.988281 " fill-opacity="1" fill-rule="nonzero"/></svg>