<svg xmlns="http://www.w3.org/2000/svg" xmlns:xlink="http://www.w3.org/1999/xlink" width="500" zoomAndPan="magnify" viewBox="0 0 375 374.999991" height="500" preserveAspectRatio="xMidYMid meet" version="1.0"><defs><filter x="0%" y="0%" width="100%" height="100%" id="a2217dfbad"><feColorMatrix values="0 0 0 0 1 0 0 0 0 1 0 0 0 0 1 0 0 0 1 0" color-interpolation-filters="sRGB"/></filter><clipPath id="0975dfe3f3"><path d="M 69.546875 0 L 305.796875 0 L 305.796875 375 L 69.546875 375 Z M 69.546875 0 " clip-rule="nonzero"/></clipPath><clipPath id="7b13bd08a6"><path d="M 69.546875 83 L 305.796875 83 L 305.796875 292 L 69.546875 292 Z M 69.546875 83 " clip-rule="nonzero"/></clipPath><clipPath id="a27971eec8"><path d="M 69.546875 0 L 305.796875 0 L 305.796875 195 L 69.546875 195 Z M 69.546875 0 " clip-rule="nonzero"/></clipPath><clipPath id="0a2e1a1878"><path d="M 69.546875 69 L 84 69 L 84 181 L 69.546875 181 Z M 69.546875 69 " clip-rule="nonzero"/></clipPath><clipPath id="f683e413e3"><path d="M 69.546875 263 L 84 263 L 84 278 L 69.546875 278 Z M 69.546875 263 " clip-rule="nonzero"/></clipPath><clipPath id="48e62b8da7"><path d="M 264 166 L 305.796875 166 L 305.796875 278 L 264 278 Z M 264 166 " clip-rule="nonzero"/></clipPath><mask id="0ecb151d95"><g filter="url(#a2217dfbad)"><rect x="-37.5" width="450" fill="#000000" y="-37.499999" height="449.999989" fill-opacity="0.3"/></g></mask><clipPath id="1ac6e27779"><path d="M 0 0.558594 L 28 0.558594 L 28 57 L 0 57 Z M 0 0.558594 " clip-rule="nonzero"/></clipPath><clipPath id="89de0bfffe"><path d="M 27 97 L 41.796875 97 L 41.796875 111.921875 L 27 111.921875 Z M 27 97 " clip-rule="nonzero"/></clipPath><clipPath id="ccf9ff4177"><rect x="0" width="42" y="0" height="112"/></clipPath><clipPath id="450e7050b1"><path d="M 291 166 L 305.796875 166 L 305.796875 181 L 291 181 Z M 291 166 " clip-rule="nonzero"/></clipPath><mask id="3939de9d90"><g filter="url(#a2217dfbad)"><rect x="-37.5" width="450" fill="#000000" y="-37.499999" height="449.999989" fill-opacity="0.5"/></g></mask><clipPath id="edb42bb7ab"><path d="M 0 0.679688 L 14 0.679688 L 14 43 L 0 43 Z M 0 0.679688 " clip-rule="nonzero"/></clipPath><clipPath id="bbbeadeaa1"><path d="M 14 42 L 28 42 L 28 56.359375 L 14 56.359375 Z M 14 42 " clip-rule="nonzero"/></clipPath><clipPath id="6d3f13baef"><rect x="0" width="29" y="0" height="57"/></clipPath><clipPath id="6cefe64be7"><path d="M 69.546875 111 L 84 111 L 84 139 L 69.546875 139 Z M 69.546875 111 " clip-rule="nonzero"/></clipPath><clipPath id="2d8b466b3a"><path d="M 291 69 L 305.796875 69 L 305.796875 167 L 291 167 Z M 291 69 " clip-rule="nonzero"/></clipPath><clipPath id="048d889cba"><path d="M 291 166 L 305.796875 166 L 305.796875 181 L 291 181 Z M 291 166 " clip-rule="nonzero"/></clipPath><mask id="e1eae6b54a"><g filter="url(#a2217dfbad)"><rect x="-37.5" width="450" fill="#000000" y="-37.499999" height="449.999989" fill-opacity="0.2"/></g></mask><clipPath id="438e347935"><path d="M 41 0.761719 L 70 0.761719 L 70 70.359375 L 41 70.359375 Z M 41 0.761719 " clip-rule="nonzero"/></clipPath><clipPath id="2f25597c38"><path d="M 83 0.761719 L 112 0.761719 L 112 70.359375 L 83 70.359375 Z M 83 0.761719 " clip-rule="nonzero"/></clipPath><clipPath id="0511cf237e"><path d="M 0.121094 14 L 15 14 L 15 57 L 0.121094 57 Z M 0.121094 14 " clip-rule="nonzero"/></clipPath><clipPath id="c9fd4a9ba1"><path d="M 139 14 L 153.238281 14 L 153.238281 57 L 139 57 Z M 139 14 " clip-rule="nonzero"/></clipPath><clipPath id="97ada563bd"><path d="M 28 14 L 42 14 L 42 70.359375 L 28 70.359375 Z M 28 14 " clip-rule="nonzero"/></clipPath><clipPath id="51e2fc34fc"><path d="M 111 14 L 126 14 L 126 70.359375 L 111 70.359375 Z M 111 14 " clip-rule="nonzero"/></clipPath><clipPath id="4269da2d42"><rect x="0" width="154" y="0" height="71"/></clipPath></defs><g clip-path="url(#0975dfe3f3)"><path fill="#160059" d="M 291.898438 69.550781 L 291.898438 41.796875 L 264.105469 41.796875 L 264.105469 14.046875 L 222.414062 14.046875 L 222.414062 0.167969 L 152.929688 0.167969 L 152.929688 14.046875 L 111.238281 14.046875 L 111.238281 41.796875 L 83.441406 41.796875 L 83.441406 69.550781 L 69.546875 69.550781 L 69.546875 180.5625 L 83.441406 180.5625 L 83.441406 194.4375 L 97.339844 194.4375 L 97.339844 222.191406 L 83.441406 222.191406 L 83.441406 263.820312 L 69.546875 263.820312 L 69.546875 277.695312 L 83.441406 277.695312 L 83.441406 291.574219 L 97.339844 291.574219 L 97.339844 319.324219 L 83.441406 319.324219 L 83.441406 347.078125 L 125.132812 347.078125 L 125.132812 360.953125 L 139.03125 360.953125 L 139.03125 374.832031 L 236.308594 374.832031 L 236.308594 360.953125 L 250.207031 360.953125 L 250.207031 347.078125 L 291.898438 347.078125 L 291.898438 319.324219 L 278 319.324219 L 278 291.574219 L 291.898438 291.574219 L 291.898438 277.695312 L 305.796875 277.695312 L 305.796875 263.820312 L 291.898438 263.820312 L 291.898438 222.191406 L 278 222.191406 L 278 194.4375 L 291.898438 194.4375 L 291.898438 180.5625 L 305.796875 180.5625 L 305.796875 69.550781 Z M 291.898438 69.550781 " fill-opacity="1" fill-rule="nonzero"/></g><path fill="#160059" d="M 250.207031 333.203125 L 125.132812 333.203125 L 125.132812 360.953125 L 139.03125 360.953125 L 139.03125 374.832031 L 236.308594 374.832031 L 236.308594 360.953125 L 250.207031 360.953125 Z M 250.207031 333.203125 " fill-opacity="1" fill-rule="nonzero"/><path fill="#fff800" d="M 278 319.324219 L 278 249.945312 L 97.339844 249.945312 L 97.339844 319.324219 L 83.441406 319.324219 L 83.441406 347.078125 L 291.898438 347.078125 L 291.898438 319.324219 Z M 278 319.324219 " fill-opacity="1" fill-rule="nonzero"/><g clip-path="url(#7b13bd08a6)"><path fill="#ff97ce" d="M 291.898438 263.820312 L 291.898438 222.191406 L 278 222.191406 L 278 180.5625 L 264.105469 180.5625 L 264.105469 83.425781 L 111.238281 83.425781 L 111.238281 180.5625 L 97.339844 180.5625 L 97.339844 222.191406 L 83.441406 222.191406 L 83.441406 263.820312 L 69.546875 263.820312 L 69.546875 277.695312 L 83.441406 277.695312 L 83.441406 291.574219 L 111.238281 291.574219 L 111.238281 277.695312 L 125.132812 277.695312 L 125.132812 263.820312 L 250.207031 263.820312 L 250.207031 277.695312 L 264.105469 277.695312 L 264.105469 291.574219 L 291.898438 291.574219 L 291.898438 277.695312 L 305.796875 277.695312 L 305.796875 263.820312 Z M 291.898438 263.820312 " fill-opacity="1" fill-rule="nonzero"/></g><g clip-path="url(#a27971eec8)"><path fill="#00a19f" d="M 291.898438 69.550781 L 291.898438 41.796875 L 264.105469 41.796875 L 264.105469 14.046875 L 222.414062 14.046875 L 222.414062 0.167969 L 152.929688 0.167969 L 152.929688 14.046875 L 111.238281 14.046875 L 111.238281 41.796875 L 83.441406 41.796875 L 83.441406 69.550781 L 69.546875 69.550781 L 69.546875 180.5625 L 83.441406 180.5625 L 83.441406 194.4375 L 97.339844 194.4375 L 97.339844 180.5625 L 111.238281 180.5625 L 111.238281 166.683594 L 125.132812 166.683594 L 125.132812 111.179688 L 139.03125 111.179688 L 139.03125 97.304688 L 166.824219 97.304688 L 166.824219 83.425781 L 208.515625 83.425781 L 208.515625 97.304688 L 236.308594 97.304688 L 236.308594 111.179688 L 250.207031 111.179688 L 250.207031 166.683594 L 264.105469 166.683594 L 264.105469 194.4375 L 291.898438 194.4375 L 291.898438 180.5625 L 305.796875 180.5625 L 305.796875 69.550781 Z M 291.898438 69.550781 " fill-opacity="1" fill-rule="nonzero"/></g><g clip-path="url(#0a2e1a1878)"><path fill="#160059" d="M 69.546875 69.550781 L 83.441406 69.550781 L 83.441406 180.5625 L 69.546875 180.5625 Z M 69.546875 69.550781 " fill-opacity="1" fill-rule="nonzero"/></g><path fill="#160059" d="M 83.441406 41.796875 L 97.339844 41.796875 L 97.339844 69.550781 L 83.441406 69.550781 Z M 83.441406 41.796875 " fill-opacity="1" fill-rule="nonzero"/><path fill="#160059" d="M 83.441406 41.796875 L 111.238281 41.796875 L 111.238281 55.675781 L 83.441406 55.675781 Z M 83.441406 41.796875 " fill-opacity="1" fill-rule="nonzero"/><path fill="#160059" d="M 125.132812 14.046875 L 111.238281 14.046875 L 111.238281 41.796875 L 125.132812 41.796875 L 125.132812 27.921875 L 152.929688 27.921875 L 152.929688 14.046875 Z M 125.132812 14.046875 " fill-opacity="1" fill-rule="nonzero"/><path fill="#160059" d="M 152.929688 0.167969 L 194.617188 0.167969 L 194.617188 14.046875 L 152.929688 14.046875 Z M 152.929688 0.167969 " fill-opacity="1" fill-rule="nonzero"/><path fill="#160059" d="M 166.824219 69.550781 L 208.515625 69.550781 L 208.515625 83.425781 L 166.824219 83.425781 Z M 166.824219 69.550781 " fill-opacity="1" fill-rule="nonzero"/><path fill="#160059" d="M 139.03125 83.425781 L 166.824219 83.425781 L 166.824219 97.304688 L 139.03125 97.304688 Z M 139.03125 83.425781 " fill-opacity="1" fill-rule="nonzero"/><path fill="#160059" d="M 208.515625 83.425781 L 236.308594 83.425781 L 236.308594 97.304688 L 208.515625 97.304688 Z M 208.515625 83.425781 " fill-opacity="1" fill-rule="nonzero"/><path fill="#160059" d="M 125.132812 97.304688 L 166.824219 97.304688 L 166.824219 111.179688 L 125.132812 111.179688 Z M 125.132812 97.304688 " fill-opacity="1" fill-rule="nonzero"/><path fill="#160059" d="M 208.515625 97.304688 L 250.207031 97.304688 L 250.207031 111.179688 L 208.515625 111.179688 Z M 208.515625 97.304688 " fill-opacity="1" fill-rule="nonzero"/><path fill="#160059" d="M 111.238281 111.179688 L 125.132812 111.179688 L 125.132812 152.808594 L 111.238281 152.808594 Z M 111.238281 111.179688 " fill-opacity="1" fill-rule="nonzero"/><path fill="#160059" d="M 125.132812 111.179688 L 139.03125 111.179688 L 139.03125 166.683594 L 125.132812 166.683594 Z M 125.132812 111.179688 " fill-opacity="0.1" fill-rule="nonzero"/><path fill="#160059" d="M 250.207031 111.179688 L 264.105469 111.179688 L 264.105469 152.808594 L 250.207031 152.808594 Z M 250.207031 111.179688 " fill-opacity="1" fill-rule="nonzero"/><path fill="#160059" d="M 236.308594 111.179688 L 250.207031 111.179688 L 250.207031 166.683594 L 236.308594 166.683594 Z M 236.308594 111.179688 " fill-opacity="0.1" fill-rule="nonzero"/><path fill="#160059" d="M 111.238281 166.683594 L 125.132812 166.683594 L 125.132812 180.5625 L 111.238281 180.5625 Z M 111.238281 166.683594 " fill-opacity="1" fill-rule="nonzero"/><path fill="#160059" d="M 250.207031 166.683594 L 264.105469 166.683594 L 264.105469 180.5625 L 250.207031 180.5625 Z M 250.207031 166.683594 " fill-opacity="1" fill-rule="nonzero"/><path fill="#160059" d="M 97.339844 180.5625 L 111.238281 180.5625 L 111.238281 222.191406 L 97.339844 222.191406 Z M 97.339844 180.5625 " fill-opacity="1" fill-rule="nonzero"/><path fill="#160059" d="M 83.441406 222.191406 L 97.339844 222.191406 L 97.339844 263.820312 L 83.441406 263.820312 Z M 83.441406 222.191406 " fill-opacity="1" fill-rule="nonzero"/><g clip-path="url(#f683e413e3)"><path fill="#160059" d="M 69.546875 263.820312 L 83.441406 263.820312 L 83.441406 277.695312 L 69.546875 277.695312 Z M 69.546875 263.820312 " fill-opacity="1" fill-rule="nonzero"/></g><path fill="#160059" d="M 83.441406 277.695312 L 111.238281 277.695312 L 111.238281 291.574219 L 83.441406 291.574219 Z M 83.441406 277.695312 " fill-opacity="1" fill-rule="nonzero"/><path fill="#160059" d="M 97.339844 291.574219 L 111.238281 291.574219 L 111.238281 319.324219 L 97.339844 319.324219 Z M 97.339844 291.574219 " fill-opacity="1" fill-rule="nonzero"/><path fill="#160059" d="M 83.441406 319.324219 L 97.339844 319.324219 L 97.339844 347.078125 L 83.441406 347.078125 Z M 83.441406 319.324219 " fill-opacity="1" fill-rule="nonzero"/><path fill="#160059" d="M 83.441406 333.203125 L 125.132812 333.203125 L 125.132812 347.078125 L 83.441406 347.078125 Z M 83.441406 333.203125 " fill-opacity="1" fill-rule="nonzero"/><path fill="#160059" d="M 250.207031 333.203125 L 291.898438 333.203125 L 291.898438 347.078125 L 250.207031 347.078125 Z M 250.207031 333.203125 " fill-opacity="1" fill-rule="nonzero"/><path fill="#160059" d="M 125.132812 333.203125 L 250.207031 333.203125 L 250.207031 347.078125 L 125.132812 347.078125 Z M 125.132812 333.203125 " fill-opacity="0.5" fill-rule="nonzero"/><path fill="#fff800" d="M 139.03125 249.945312 L 236.308594 249.945312 L 236.308594 277.695312 L 139.03125 277.695312 Z M 139.03125 249.945312 " fill-opacity="1" fill-rule="nonzero"/><path fill="#160059" d="M 83.441406 180.5625 L 111.238281 180.5625 L 111.238281 194.4375 L 83.441406 194.4375 Z M 83.441406 180.5625 " fill-opacity="1" fill-rule="nonzero"/><path fill="#160059" d="M 125.132812 152.808594 L 152.929688 152.808594 L 152.929688 166.683594 L 125.132812 166.683594 Z M 125.132812 152.808594 " fill-opacity="1" fill-rule="nonzero"/><path fill="#160059" d="M 222.414062 152.808594 L 250.207031 152.808594 L 250.207031 166.683594 L 222.414062 166.683594 Z M 222.414062 152.808594 " fill-opacity="1" fill-rule="nonzero"/><path fill="#160059" d="M 139.03125 83.425781 L 166.824219 83.425781 L 166.824219 111.179688 L 139.03125 111.179688 Z M 139.03125 83.425781 " fill-opacity="1" fill-rule="nonzero"/><path fill="#160059" d="M 208.515625 83.425781 L 236.308594 83.425781 L 236.308594 111.179688 L 208.515625 111.179688 Z M 208.515625 83.425781 " fill-opacity="1" fill-rule="nonzero"/><path fill="#160059" d="M 139.03125 194.4375 L 236.308594 194.4375 L 236.308594 208.316406 L 139.03125 208.316406 Z M 139.03125 194.4375 " fill-opacity="0.1" fill-rule="nonzero"/><path fill="#160059" d="M 139.03125 166.683594 L 236.308594 166.683594 L 236.308594 180.5625 L 139.03125 180.5625 Z M 139.03125 166.683594 " fill-opacity="0.3" fill-rule="nonzero"/><path fill="#ff00cf" d="M 208.515625 166.683594 L 208.515625 180.5625 L 222.414062 180.5625 L 222.414062 194.4375 L 194.617188 194.4375 L 194.617188 208.316406 L 180.722656 208.316406 L 180.722656 194.4375 L 152.929688 194.4375 L 152.929688 180.5625 L 166.824219 180.5625 L 166.824219 166.683594 L 139.03125 166.683594 L 139.03125 249.945312 L 236.308594 249.945312 L 236.308594 166.683594 Z M 208.515625 166.683594 " fill-opacity="1" fill-rule="nonzero"/><path fill="#160059" d="M 166.824219 69.550781 L 208.515625 69.550781 L 208.515625 97.304688 L 166.824219 97.304688 Z M 166.824219 69.550781 " fill-opacity="0.2" fill-rule="nonzero"/><path fill="#160059" d="M 139.03125 152.808594 L 166.824219 152.808594 L 166.824219 166.683594 L 139.03125 166.683594 Z M 139.03125 152.808594 " fill-opacity="0.5" fill-rule="nonzero"/><path fill="#160059" d="M 208.515625 152.808594 L 236.308594 152.808594 L 236.308594 166.683594 L 208.515625 166.683594 Z M 208.515625 152.808594 " fill-opacity="0.5" fill-rule="nonzero"/><path fill="#160059" d="M 111.238281 263.820312 L 125.132812 263.820312 L 125.132812 277.695312 L 111.238281 277.695312 Z M 111.238281 263.820312 " fill-opacity="1" fill-rule="nonzero"/><path fill="#160059" d="M 250.207031 263.820312 L 264.105469 263.820312 L 264.105469 277.695312 L 250.207031 277.695312 Z M 250.207031 263.820312 " fill-opacity="1" fill-rule="nonzero"/><g clip-path="url(#48e62b8da7)"><g mask="url(#0ecb151d95)"><g transform="matrix(1, 0, 0, 1, 264, 166)"><g clip-path="url(#ccf9ff4177)"><g clip-path="url(#1ac6e27779)"><path fill="#160059" d="M 27.898438 28.4375 L 27.898438 14.5625 L 14 14.5625 L 14 0.683594 L 0.105469 0.683594 L 0.105469 56.191406 L 14 56.191406 L 14 28.4375 Z M 27.898438 28.4375 " fill-opacity="1" fill-rule="nonzero"/></g><path fill="#160059" d="M 14 56.191406 L 27.898438 56.191406 L 27.898438 97.820312 L 14 97.820312 Z M 14 56.191406 " fill-opacity="1" fill-rule="nonzero"/><g clip-path="url(#89de0bfffe)"><path fill="#160059" d="M 27.898438 97.820312 L 41.796875 97.820312 L 41.796875 111.695312 L 27.898438 111.695312 Z M 27.898438 97.820312 " fill-opacity="1" fill-rule="nonzero"/></g></g></g></g></g><path fill="#160059" d="M 264.105469 277.695312 L 291.898438 277.695312 L 291.898438 291.574219 L 264.105469 291.574219 Z M 264.105469 277.695312 " fill-opacity="1" fill-rule="nonzero"/><g clip-path="url(#450e7050b1)"><path fill="#160059" d="M 291.898438 166.683594 L 305.796875 166.683594 L 305.796875 180.5625 L 291.898438 180.5625 Z M 291.898438 166.683594 " fill-opacity="0.5" fill-rule="nonzero"/></g><path fill="#160059" d="M 139.03125 249.945312 L 236.308594 249.945312 L 236.308594 263.820312 L 139.03125 263.820312 Z M 139.03125 249.945312 " fill-opacity="0.5" fill-rule="nonzero"/><path fill="#160059" d="M 152.929688 83.425781 L 166.824219 83.425781 L 166.824219 125.054688 L 152.929688 125.054688 Z M 152.929688 83.425781 " fill-opacity="1" fill-rule="nonzero"/><path fill="#160059" d="M 208.515625 83.425781 L 222.414062 83.425781 L 222.414062 125.054688 L 208.515625 125.054688 Z M 208.515625 83.425781 " fill-opacity="1" fill-rule="nonzero"/><path fill="#00a19f" d="M 152.929688 125.054688 L 166.824219 125.054688 L 166.824219 138.933594 L 152.929688 138.933594 Z M 152.929688 125.054688 " fill-opacity="1" fill-rule="nonzero"/><path fill="#00a19f" d="M 208.515625 125.054688 L 222.414062 125.054688 L 222.414062 138.933594 L 208.515625 138.933594 Z M 208.515625 125.054688 " fill-opacity="1" fill-rule="nonzero"/><path fill="#160059" d="M 125.132812 138.933594 L 139.03125 138.933594 L 139.03125 152.808594 L 125.132812 152.808594 Z M 125.132812 138.933594 " fill-opacity="0.1" fill-rule="nonzero"/><path fill="#160059" d="M 236.308594 138.933594 L 250.207031 138.933594 L 250.207031 152.808594 L 236.308594 152.808594 Z M 236.308594 138.933594 " fill-opacity="0.1" fill-rule="nonzero"/><path fill="#160059" d="M 125.132812 152.808594 L 152.929688 152.808594 L 152.929688 166.683594 L 125.132812 166.683594 Z M 125.132812 152.808594 " fill-opacity="1" fill-rule="nonzero"/><path fill="#160059" d="M 139.03125 166.683594 L 152.929688 166.683594 L 152.929688 249.945312 L 139.03125 249.945312 Z M 139.03125 166.683594 " fill-opacity="0.3" fill-rule="nonzero"/><path fill="#160059" d="M 222.414062 166.683594 L 236.308594 166.683594 L 236.308594 249.945312 L 222.414062 249.945312 Z M 222.414062 166.683594 " fill-opacity="0.3" fill-rule="nonzero"/><path fill="#160059" d="M 166.824219 194.4375 L 180.722656 194.4375 L 180.722656 208.316406 L 166.824219 208.316406 Z M 166.824219 194.4375 " fill-opacity="0.2" fill-rule="nonzero"/><path fill="#160059" d="M 194.617188 194.4375 L 208.515625 194.4375 L 208.515625 208.316406 L 194.617188 208.316406 Z M 194.617188 194.4375 " fill-opacity="0.2" fill-rule="nonzero"/><path fill="#160059" d="M 180.722656 208.316406 L 194.617188 208.316406 L 194.617188 222.191406 L 180.722656 222.191406 Z M 180.722656 208.316406 " fill-opacity="0.2" fill-rule="nonzero"/><path fill="#160059" d="M 180.722656 347.078125 L 194.617188 347.078125 L 194.617188 360.953125 L 180.722656 360.953125 Z M 180.722656 347.078125 " fill-opacity="0.5" fill-rule="nonzero"/><g mask="url(#3939de9d90)"><g transform="matrix(1, 0, 0, 1, 264, 277)"><g clip-path="url(#6d3f13baef)"><g clip-path="url(#edb42bb7ab)"><path fill="#160059" d="M 0.105469 0.695312 L 14 0.695312 L 14 42.324219 L 0.105469 42.324219 Z M 0.105469 0.695312 " fill-opacity="1" fill-rule="nonzero"/></g><g clip-path="url(#bbbeadeaa1)"><path fill="#160059" d="M 14 42.324219 L 27.898438 42.324219 L 27.898438 56.203125 L 14 56.203125 Z M 14 42.324219 " fill-opacity="1" fill-rule="nonzero"/></g></g></g></g><path fill="#160059" d="M 152.929688 27.921875 L 166.824219 27.921875 L 166.824219 41.796875 L 152.929688 41.796875 Z M 152.929688 27.921875 " fill-opacity="0.3" fill-rule="nonzero"/><path fill="#160059" d="M 139.03125 41.796875 L 152.929688 41.796875 L 152.929688 55.675781 L 139.03125 55.675781 Z M 139.03125 41.796875 " fill-opacity="0.3" fill-rule="nonzero"/><path fill="#160059" d="M 111.238281 97.304688 L 125.132812 97.304688 L 125.132812 111.179688 L 111.238281 111.179688 Z M 111.238281 97.304688 " fill-opacity="0.5" fill-rule="nonzero"/><path fill="#160059" d="M 97.339844 111.179688 L 111.238281 111.179688 L 111.238281 152.808594 L 97.339844 152.808594 Z M 97.339844 111.179688 " fill-opacity="0.5" fill-rule="nonzero"/><path fill="#160059" d="M 139.03125 138.933594 L 152.929688 138.933594 L 152.929688 152.808594 L 139.03125 152.808594 Z M 139.03125 138.933594 " fill-opacity="0.1" fill-rule="nonzero"/><path fill="#160059" d="M 222.414062 138.933594 L 236.308594 138.933594 L 236.308594 152.808594 L 222.414062 152.808594 Z M 222.414062 138.933594 " fill-opacity="0.1" fill-rule="nonzero"/><path fill="#160059" d="M 83.441406 69.550781 L 97.339844 69.550781 L 97.339844 111.179688 L 83.441406 111.179688 Z M 83.441406 69.550781 " fill-opacity="0.2" fill-rule="nonzero"/><g clip-path="url(#6cefe64be7)"><path fill="#160059" d="M 69.546875 111.179688 L 83.441406 111.179688 L 83.441406 138.933594 L 69.546875 138.933594 Z M 69.546875 111.179688 " fill-opacity="0.2" fill-rule="nonzero"/></g><path fill="#160059" d="M 83.441406 138.933594 L 97.339844 138.933594 L 97.339844 180.5625 L 83.441406 180.5625 Z M 83.441406 138.933594 " fill-opacity="0.2" fill-rule="nonzero"/><path fill="#160059" d="M 194.617188 0.167969 L 222.414062 0.167969 L 222.414062 14.046875 L 194.617188 14.046875 Z M 194.617188 0.167969 " fill-opacity="0.5" fill-rule="nonzero"/><path fill="#160059" d="M 222.414062 41.796875 L 208.515625 41.796875 L 208.515625 27.921875 L 222.414062 27.921875 Z M 222.414062 41.796875 " fill-opacity="0.3" fill-rule="nonzero"/><path fill="#160059" d="M 236.308594 55.675781 L 222.414062 55.675781 L 222.414062 41.796875 L 236.308594 41.796875 Z M 236.308594 55.675781 " fill-opacity="0.3" fill-rule="nonzero"/><path fill="#160059" d="M 222.414062 83.425781 L 208.515625 83.425781 L 208.515625 69.550781 L 222.414062 69.550781 Z M 222.414062 83.425781 " fill-opacity="0.3" fill-rule="nonzero"/><path fill="#160059" d="M 166.824219 83.425781 L 152.929688 83.425781 L 152.929688 69.550781 L 166.824219 69.550781 Z M 166.824219 83.425781 " fill-opacity="0.3" fill-rule="nonzero"/><path fill="#160059" d="M 264.105469 111.179688 L 250.207031 111.179688 L 250.207031 97.304688 L 264.105469 97.304688 Z M 264.105469 111.179688 " fill-opacity="0.5" fill-rule="nonzero"/><path fill="#160059" d="M 278 152.808594 L 264.105469 152.808594 L 264.105469 111.179688 L 278 111.179688 Z M 278 152.808594 " fill-opacity="0.5" fill-rule="nonzero"/><g clip-path="url(#2d8b466b3a)"><path fill="#160059" d="M 305.796875 166.683594 L 291.898438 166.683594 L 291.898438 69.550781 L 305.796875 69.550781 Z M 305.796875 166.683594 " fill-opacity="0.5" fill-rule="nonzero"/></g><path fill="#160059" d="M 291.898438 180.5625 L 278 180.5625 L 278 138.933594 L 291.898438 138.933594 Z M 291.898438 180.5625 " fill-opacity="0.2" fill-rule="nonzero"/><path fill="#160059" d="M 278 180.5625 L 291.898438 180.5625 L 291.898438 194.4375 L 278 194.4375 Z M 278 180.5625 " fill-opacity="1" fill-rule="nonzero"/><g clip-path="url(#048d889cba)"><path fill="#160059" d="M 291.898438 166.683594 L 305.796875 166.683594 L 305.796875 180.5625 L 291.898438 180.5625 Z M 291.898438 166.683594 " fill-opacity="1" fill-rule="nonzero"/></g><path fill="#160059" d="M 97.339844 263.820312 L 111.238281 263.820312 L 111.238281 277.695312 L 97.339844 277.695312 Z M 97.339844 263.820312 " fill-opacity="0.3" fill-rule="nonzero"/><path fill="#160059" d="M 264.105469 263.820312 L 278 263.820312 L 278 277.695312 L 264.105469 277.695312 Z M 264.105469 263.820312 " fill-opacity="0.3" fill-rule="nonzero"/><path fill="#160059" d="M 111.238281 236.066406 L 125.132812 236.066406 L 125.132812 263.820312 L 111.238281 263.820312 Z M 111.238281 236.066406 " fill-opacity="0.3" fill-rule="nonzero"/><path fill="#160059" d="M 250.207031 236.066406 L 264.105469 236.066406 L 264.105469 263.820312 L 250.207031 263.820312 Z M 250.207031 236.066406 " fill-opacity="0.3" fill-rule="nonzero"/><path fill="#160059" d="M 125.132812 263.820312 L 139.03125 263.820312 L 139.03125 277.695312 L 125.132812 277.695312 Z M 125.132812 263.820312 " fill-opacity="0.5" fill-rule="nonzero"/><path fill="#160059" d="M 236.308594 263.820312 L 250.207031 263.820312 L 250.207031 277.695312 L 236.308594 277.695312 Z M 236.308594 263.820312 " fill-opacity="0.5" fill-rule="nonzero"/><g mask="url(#e1eae6b54a)"><g transform="matrix(1, 0, 0, 1, 111, 263)"><g clip-path="url(#4269da2d42)"><g clip-path="url(#438e347935)"><path fill="#160059" d="M 41.929688 14.695312 L 55.824219 14.695312 L 55.824219 70.203125 L 69.722656 70.203125 L 69.722656 0.820312 L 41.929688 0.820312 Z M 41.929688 14.695312 " fill-opacity="1" fill-rule="nonzero"/></g><g clip-path="url(#2f25597c38)"><path fill="#160059" d="M 83.617188 0.820312 L 83.617188 70.203125 L 97.515625 70.203125 L 97.515625 14.695312 L 111.414062 14.695312 L 111.414062 0.820312 Z M 83.617188 0.820312 " fill-opacity="1" fill-rule="nonzero"/></g><g clip-path="url(#0511cf237e)"><path fill="#160059" d="M 0.238281 14.695312 L 14.132812 14.695312 L 14.132812 56.324219 L 0.238281 56.324219 Z M 0.238281 14.695312 " fill-opacity="1" fill-rule="nonzero"/></g><g clip-path="url(#c9fd4a9ba1)"><path fill="#160059" d="M 139.207031 14.695312 L 153.105469 14.695312 L 153.105469 56.324219 L 139.207031 56.324219 Z M 139.207031 14.695312 " fill-opacity="1" fill-rule="nonzero"/></g><g clip-path="url(#97ada563bd)"><path fill="#160059" d="M 28.03125 14.695312 L 41.929688 14.695312 L 41.929688 70.203125 L 28.03125 70.203125 Z M 28.03125 14.695312 " fill-opacity="1" fill-rule="nonzero"/></g><g clip-path="url(#51e2fc34fc)"><path fill="#160059" d="M 111.414062 14.695312 L 125.308594 14.695312 L 125.308594 70.203125 L 111.414062 70.203125 Z M 111.414062 14.695312 " fill-opacity="1" fill-rule="nonzero"/></g></g></g></g><path fill="#160059" d="M 97.339844 55.675781 L 111.238281 55.675781 L 111.238281 69.550781 L 97.339844 69.550781 Z M 97.339844 55.675781 " fill-opacity="0.2" fill-rule="nonzero"/><path fill="#160059" d="M 264.105469 14.046875 L 222.414062 14.046875 L 222.414062 27.921875 L 250.207031 27.921875 L 250.207031 41.796875 L 264.105469 41.796875 Z M 264.105469 14.046875 " fill-opacity="0.5" fill-rule="nonzero"/><path fill="#160059" d="M 264.105469 41.796875 L 264.105469 55.675781 L 278 55.675781 L 278 69.550781 L 291.898438 69.550781 L 291.898438 41.796875 Z M 264.105469 41.796875 " fill-opacity="0.5" fill-rule="nonzero"/><path fill="#160059" d="M 139.03125 249.945312 L 139.03125 194.4375 L 125.132812 194.4375 L 125.132812 263.820312 L 152.929688 263.820312 L 152.929688 249.945312 Z M 139.03125 249.945312 " fill-opacity="1" fill-rule="nonzero"/><path fill="#160059" d="M 236.308594 249.945312 L 236.308594 194.4375 L 250.207031 194.4375 L 250.207031 263.820312 L 222.414062 263.820312 L 222.414062 249.945312 Z M 236.308594 249.945312 " fill-opacity="1" fill-rule="nonzero"/><path fill="#ff00cf" d="M 139.03125 347.078125 L 180.722656 347.078125 L 180.722656 360.953125 L 139.03125 360.953125 Z M 139.03125 347.078125 " fill-opacity="1" fill-rule="nonzero"/><path fill="#ff00cf" d="M 194.617188 347.078125 L 236.308594 347.078125 L 236.308594 360.953125 L 194.617188 360.953125 Z M 194.617188 347.078125 " fill-opacity="1" fill-rule="nonzero"/><path fill="#160059" d="M 166.824219 347.078125 L 208.515625 347.078125 L 208.515625 360.953125 L 166.824219 360.953125 Z M 166.824219 347.078125 " fill-opacity="0.5" fill-rule="nonzero"/><path fill="#160059" d="M 125.132812 166.683594 L 139.03125 166.683594 L 139.03125 194.4375 L 125.132812 194.4375 Z M 125.132812 166.683594 " fill-opacity="0.3" fill-rule="nonzero"/><path fill="#160059" d="M 236.308594 166.683594 L 250.207031 166.683594 L 250.207031 194.4375 L 236.308594 194.4375 Z M 236.308594 166.683594 " fill-opacity="0.3" fill-rule="nonzero"/></svg>