<svg xmlns="http://www.w3.org/2000/svg" xmlns:xlink="http://www.w3.org/1999/xlink" width="500" zoomAndPan="magnify" viewBox="0 0 375 374.999991" height="500" preserveAspectRatio="xMidYMid meet" version="1.0"><defs><clipPath id="c5ccc6aee1"><path d="M 93.75 0 L 281.25 0 L 281.25 375 L 93.75 375 Z M 93.75 0 " clip-rule="nonzero"/></clipPath><clipPath id="7acff72a27"><path d="M 222 187 L 281.25 187 L 281.25 293 L 222 293 Z M 222 187 " clip-rule="nonzero"/></clipPath><clipPath id="f7a2e39140"><path d="M 93.75 187 L 153 187 L 153 293 L 93.75 293 Z M 93.75 187 " clip-rule="nonzero"/></clipPath><clipPath id="aaba2c78c9"><path d="M 93.75 269 L 106 269 L 106 282 L 93.75 282 Z M 93.75 269 " clip-rule="nonzero"/></clipPath><clipPath id="2d3df18916"><path d="M 269 269 L 281.25 269 L 281.25 282 L 269 282 Z M 269 269 " clip-rule="nonzero"/></clipPath></defs><g clip-path="url(#c5ccc6aee1)"><path fill="#160059" d="M 269.53125 269.53125 L 269.53125 234.375 L 257.8125 234.375 L 257.8125 187.5 L 269.53125 187.5 L 269.53125 175.78125 L 257.8125 175.78125 L 257.8125 152.34375 L 269.53125 152.34375 L 269.53125 70.3125 L 257.8125 70.3125 L 257.8125 46.875 L 269.53125 46.875 L 269.53125 23.4375 L 246.09375 23.4375 L 246.09375 11.71875 L 234.375 11.71875 L 234.375 0 L 222.65625 0 L 222.65625 23.4375 L 210.9375 23.4375 L 210.9375 11.71875 L 164.0625 11.71875 L 164.0625 23.4375 L 140.625 23.4375 L 140.625 35.15625 L 128.90625 35.15625 L 128.90625 46.875 L 117.1875 46.875 L 117.1875 70.3125 L 105.46875 70.3125 L 105.46875 152.34375 L 117.1875 152.34375 L 117.1875 175.78125 L 105.46875 175.78125 L 105.46875 187.5 L 117.1875 187.5 L 117.1875 234.375 L 105.46875 234.375 L 105.46875 269.53125 L 93.75 269.53125 L 93.75 281.25 L 105.46875 281.25 L 105.46875 292.96875 L 117.1875 292.96875 L 117.1875 304.6875 L 105.46875 304.6875 L 105.46875 328.125 L 117.1875 328.125 L 117.1875 339.84375 L 128.90625 339.84375 L 128.90625 363.28125 L 140.625 363.28125 L 140.625 375 L 175.78125 375 L 175.78125 363.28125 L 199.21875 363.28125 L 199.21875 375 L 234.375 375 L 234.375 363.28125 L 246.09375 363.28125 L 246.09375 339.84375 L 257.8125 339.84375 L 257.8125 328.125 L 269.53125 328.125 L 269.53125 304.6875 L 257.8125 304.6875 L 257.8125 292.96875 L 269.53125 292.96875 L 269.53125 281.25 L 281.25 281.25 L 281.25 269.53125 Z M 269.53125 269.53125 " fill-opacity="1" fill-rule="nonzero"/></g><path fill="#e80059" d="M 246.09375 328.125 L 246.09375 363.28125 L 234.375 363.28125 L 234.375 375 L 199.21875 375 L 199.21875 328.125 Z M 246.09375 328.125 " fill-opacity="1" fill-rule="nonzero"/><path fill="#e80059" d="M 128.90625 328.125 L 128.90625 363.28125 L 140.625 363.28125 L 140.625 375 L 175.78125 375 L 175.78125 328.125 Z M 128.90625 328.125 " fill-opacity="1" fill-rule="nonzero"/><g clip-path="url(#7acff72a27)"><path fill="#f4654a" d="M 222.65625 187.5 L 257.8125 187.5 L 257.8125 234.375 L 269.53125 234.375 L 269.53125 269.53125 L 281.25 269.53125 L 281.25 281.25 L 269.53125 281.25 L 269.53125 292.96875 L 246.09375 292.96875 L 246.09375 281.25 L 234.375 281.25 L 234.375 269.53125 L 222.65625 269.53125 Z M 222.65625 187.5 " fill-opacity="1" fill-rule="nonzero"/></g><g clip-path="url(#f7a2e39140)"><path fill="#f4654a" d="M 152.34375 187.5 L 117.1875 187.5 L 117.1875 234.375 L 105.46875 234.375 L 105.46875 269.53125 L 93.75 269.53125 L 93.75 281.25 L 105.46875 281.25 L 105.46875 292.96875 L 128.90625 292.96875 L 128.90625 281.25 L 140.625 281.25 L 140.625 269.53125 L 152.34375 269.53125 Z M 152.34375 187.5 " fill-opacity="1" fill-rule="nonzero"/></g><path fill="#ffb600" d="M 140.625 152.34375 L 234.375 152.34375 L 234.375 269.53125 L 140.625 269.53125 Z M 140.625 152.34375 " fill-opacity="1" fill-rule="nonzero"/><path fill="#f4654a" d="M 128.90625 70.3125 L 246.09375 70.3125 L 246.09375 164.0625 L 128.90625 164.0625 Z M 128.90625 70.3125 " fill-opacity="1" fill-rule="nonzero"/><path fill="#00f400" d="M 257.8125 70.3125 L 257.8125 46.875 L 246.09375 46.875 L 246.09375 35.15625 L 234.375 35.15625 L 234.375 23.4375 L 210.9375 23.4375 L 210.9375 11.71875 L 164.0625 11.71875 L 164.0625 23.4375 L 140.625 23.4375 L 140.625 35.15625 L 128.90625 35.15625 L 128.90625 46.875 L 117.1875 46.875 L 117.1875 70.3125 L 105.46875 70.3125 L 105.46875 152.34375 L 117.1875 152.34375 L 117.1875 175.78125 L 105.46875 175.78125 L 105.46875 187.5 L 117.1875 187.5 L 117.1875 199.21875 L 140.625 199.21875 L 140.625 187.5 L 152.34375 187.5 L 152.34375 175.78125 L 164.0625 175.78125 L 164.0625 152.34375 L 140.625 152.34375 L 140.625 105.46875 L 175.78125 105.46875 L 175.78125 93.75 L 187.5 93.75 L 187.5 82.03125 L 222.65625 82.03125 L 222.65625 93.75 L 234.375 93.75 L 234.375 152.34375 L 210.9375 152.34375 L 210.9375 175.78125 L 222.65625 175.78125 L 222.65625 187.5 L 234.375 187.5 L 234.375 199.21875 L 257.8125 199.21875 L 257.8125 187.5 L 269.53125 187.5 L 269.53125 175.78125 L 257.8125 175.78125 L 257.8125 152.34375 L 269.53125 152.34375 L 269.53125 70.3125 Z M 257.8125 70.3125 " fill-opacity="1" fill-rule="nonzero"/><path fill="#ffb600" d="M 269.53125 328.125 L 269.53125 304.6875 L 257.8125 304.6875 L 257.8125 292.96875 L 246.09375 292.96875 L 246.09375 281.25 L 234.375 281.25 L 234.375 269.53125 L 222.65625 269.53125 L 222.65625 234.375 L 152.34375 234.375 L 152.34375 269.53125 L 140.625 269.53125 L 140.625 281.25 L 128.90625 281.25 L 128.90625 292.96875 L 117.1875 292.96875 L 117.1875 304.6875 L 105.46875 304.6875 L 105.46875 328.125 L 117.1875 328.125 L 117.1875 339.84375 L 140.625 339.84375 L 140.625 351.5625 L 152.34375 351.5625 L 152.34375 363.28125 L 222.65625 363.28125 L 222.65625 351.5625 L 234.375 351.5625 L 234.375 339.84375 L 257.8125 339.84375 L 257.8125 328.125 Z M 269.53125 328.125 " fill-opacity="1" fill-rule="nonzero"/><path fill="#160059" d="M 164.0625 11.71875 L 175.78125 11.71875 L 175.78125 23.4375 L 164.0625 23.4375 Z M 164.0625 11.71875 " fill-opacity="1" fill-rule="nonzero"/><path fill="#160059" d="M 140.625 23.4375 L 164.0625 23.4375 L 164.0625 35.15625 L 140.625 35.15625 Z M 140.625 23.4375 " fill-opacity="1" fill-rule="nonzero"/><path fill="#160059" d="M 128.90625 35.15625 L 140.625 35.15625 L 140.625 46.875 L 128.90625 46.875 Z M 128.90625 35.15625 " fill-opacity="1" fill-rule="nonzero"/><path fill="#160059" d="M 117.1875 46.875 L 128.90625 46.875 L 128.90625 70.3125 L 117.1875 70.3125 Z M 117.1875 46.875 " fill-opacity="1" fill-rule="nonzero"/><path fill="#160059" d="M 105.46875 70.3125 L 117.1875 70.3125 L 117.1875 152.34375 L 105.46875 152.34375 Z M 105.46875 70.3125 " fill-opacity="1" fill-rule="nonzero"/><path fill="#160059" d="M 117.1875 152.34375 L 128.90625 152.34375 L 128.90625 175.78125 L 117.1875 175.78125 Z M 117.1875 152.34375 " fill-opacity="1" fill-rule="nonzero"/><path fill="#160059" d="M 105.46875 175.78125 L 117.1875 175.78125 L 117.1875 187.5 L 105.46875 187.5 Z M 105.46875 175.78125 " fill-opacity="1" fill-rule="nonzero"/><path fill="#160059" d="M 117.1875 187.5 L 140.625 187.5 L 140.625 199.21875 L 117.1875 199.21875 Z M 117.1875 187.5 " fill-opacity="1" fill-rule="nonzero"/><path fill="#160059" d="M 140.625 93.75 L 175.78125 93.75 L 175.78125 105.46875 L 140.625 105.46875 Z M 140.625 93.75 " fill-opacity="1" fill-rule="nonzero"/><path fill="#160059" d="M 175.78125 82.03125 L 187.5 82.03125 L 187.5 93.75 L 175.78125 93.75 Z M 175.78125 82.03125 " fill-opacity="1" fill-rule="nonzero"/><path fill="#160059" d="M 187.5 70.3125 L 222.65625 70.3125 L 222.65625 82.03125 L 187.5 82.03125 Z M 187.5 70.3125 " fill-opacity="1" fill-rule="nonzero"/><path fill="#160059" d="M 222.65625 82.03125 L 234.375 82.03125 L 234.375 93.75 L 222.65625 93.75 Z M 222.65625 82.03125 " fill-opacity="1" fill-rule="nonzero"/><path fill="#160059" d="M 234.375 93.75 L 246.09375 93.75 L 246.09375 140.625 L 234.375 140.625 Z M 234.375 93.75 " fill-opacity="1" fill-rule="nonzero"/><path fill="#160059" d="M 128.90625 105.46875 L 140.625 105.46875 L 140.625 128.90625 L 128.90625 128.90625 Z M 128.90625 105.46875 " fill-opacity="1" fill-rule="nonzero"/><path fill="#160059" d="M 140.625 128.90625 L 152.34375 128.90625 L 152.34375 152.34375 L 140.625 152.34375 Z M 140.625 128.90625 " fill-opacity="1" fill-rule="nonzero"/><path fill="#160059" d="M 152.34375 152.34375 L 164.0625 152.34375 L 164.0625 175.78125 L 152.34375 175.78125 Z M 152.34375 152.34375 " fill-opacity="1" fill-rule="nonzero"/><path fill="#160059" d="M 140.625 175.78125 L 152.34375 175.78125 L 152.34375 187.5 L 140.625 187.5 Z M 140.625 175.78125 " fill-opacity="1" fill-rule="nonzero"/><path fill="#160059" d="M 222.65625 140.625 L 234.375 140.625 L 234.375 152.34375 L 222.65625 152.34375 Z M 222.65625 140.625 " fill-opacity="1" fill-rule="nonzero"/><path fill="#160059" d="M 210.9375 152.34375 L 222.65625 152.34375 L 222.65625 175.78125 L 210.9375 175.78125 Z M 210.9375 152.34375 " fill-opacity="1" fill-rule="nonzero"/><path fill="#160059" d="M 222.65625 175.78125 L 234.375 175.78125 L 234.375 187.5 L 222.65625 187.5 Z M 222.65625 175.78125 " fill-opacity="0.5" fill-rule="nonzero"/><path fill="#160059" d="M 234.375 187.5 L 257.8125 187.5 L 257.8125 199.21875 L 234.375 199.21875 Z M 234.375 187.5 " fill-opacity="0.5" fill-rule="nonzero"/><path fill="#160059" d="M 257.8125 175.78125 L 269.53125 175.78125 L 269.53125 187.5 L 257.8125 187.5 Z M 257.8125 175.78125 " fill-opacity="0.5" fill-rule="nonzero"/><path fill="#160059" d="M 257.8125 70.3125 L 269.53125 70.3125 L 269.53125 152.34375 L 257.8125 152.34375 Z M 257.8125 70.3125 " fill-opacity="0.5" fill-rule="nonzero"/><path fill="#160059" d="M 246.09375 46.875 L 257.8125 46.875 L 257.8125 70.3125 L 246.09375 70.3125 Z M 246.09375 46.875 " fill-opacity="0.5" fill-rule="nonzero"/><path fill="#160059" d="M 234.375 35.15625 L 246.09375 35.15625 L 246.09375 46.875 L 234.375 46.875 Z M 234.375 35.15625 " fill-opacity="0.5" fill-rule="nonzero"/><path fill="#160059" d="M 210.9375 23.4375 L 210.9375 11.71875 L 175.78125 11.71875 L 175.78125 23.4375 L 199.21875 23.4375 L 199.21875 35.15625 L 210.9375 35.15625 L 210.9375 70.3125 L 222.65625 70.3125 L 222.65625 35.15625 L 234.375 35.15625 L 234.375 23.4375 Z M 210.9375 23.4375 " fill-opacity="0.5" fill-rule="nonzero"/><path fill="#160059" d="M 117.1875 70.3125 L 128.90625 70.3125 L 128.90625 105.46875 L 117.1875 105.46875 Z M 117.1875 70.3125 " fill-opacity="0.5" fill-rule="nonzero"/><path fill="#160059" d="M 117.1875 117.1875 L 128.90625 117.1875 L 128.90625 140.625 L 117.1875 140.625 Z M 117.1875 117.1875 " fill-opacity="0.2" fill-rule="nonzero"/><path fill="#160059" d="M 246.09375 117.1875 L 257.8125 117.1875 L 257.8125 140.625 L 246.09375 140.625 Z M 246.09375 117.1875 " fill-opacity="0.2" fill-rule="nonzero"/><path fill="#160059" d="M 234.375 70.3125 L 246.09375 70.3125 L 246.09375 93.75 L 234.375 93.75 Z M 234.375 70.3125 " fill-opacity="0.2" fill-rule="nonzero"/><path fill="#160059" d="M 128.90625 46.875 L 140.625 46.875 L 140.625 70.3125 L 128.90625 70.3125 Z M 128.90625 46.875 " fill-opacity="0.2" fill-rule="nonzero"/><path fill="#160059" d="M 199.21875 35.15625 L 210.9375 35.15625 L 210.9375 58.59375 L 199.21875 58.59375 Z M 199.21875 35.15625 " fill-opacity="0.2" fill-rule="nonzero"/><path fill="#160059" d="M 187.5 58.59375 L 199.21875 58.59375 L 199.21875 70.3125 L 187.5 70.3125 Z M 187.5 58.59375 " fill-opacity="0.2" fill-rule="nonzero"/><path fill="#160059" d="M 140.625 35.15625 L 152.34375 35.15625 L 152.34375 46.875 L 140.625 46.875 Z M 140.625 35.15625 " fill-opacity="0.2" fill-rule="nonzero"/><path fill="#160059" d="M 152.34375 82.03125 L 152.34375 70.3125 L 140.625 70.3125 L 140.625 93.75 L 175.78125 93.75 L 175.78125 82.03125 Z M 152.34375 82.03125 " fill-opacity="0.2" fill-rule="nonzero"/><path fill="#160059" d="M 128.90625 140.625 L 140.625 140.625 L 140.625 164.0625 L 128.90625 164.0625 Z M 128.90625 140.625 " fill-opacity="0.5" fill-rule="nonzero"/><path fill="#160059" d="M 246.09375 152.34375 L 246.09375 140.625 L 234.375 140.625 L 234.375 164.0625 L 246.09375 164.0625 L 246.09375 175.78125 L 257.8125 175.78125 L 257.8125 152.34375 Z M 246.09375 152.34375 " fill-opacity="0.5" fill-rule="nonzero"/><path fill="#160059" d="M 140.625 164.0625 L 152.34375 164.0625 L 152.34375 175.78125 L 140.625 175.78125 Z M 140.625 164.0625 " fill-opacity="0.5" fill-rule="nonzero"/><path fill="#160059" d="M 117.1875 175.78125 L 140.625 175.78125 L 140.625 187.5 L 117.1875 187.5 Z M 117.1875 175.78125 " fill-opacity="0.3" fill-rule="nonzero"/><path fill="#160059" d="M 234.375 175.78125 L 257.8125 175.78125 L 257.8125 187.5 L 234.375 187.5 Z M 234.375 175.78125 " fill-opacity="0.3" fill-rule="nonzero"/><path fill="#160059" d="M 187.5 82.03125 L 222.65625 82.03125 L 222.65625 93.75 L 187.5 93.75 Z M 187.5 82.03125 " fill-opacity="0.5" fill-rule="nonzero"/><path fill="#160059" d="M 175.78125 93.75 L 187.5 93.75 L 187.5 105.46875 L 175.78125 105.46875 Z M 175.78125 93.75 " fill-opacity="0.2" fill-rule="nonzero"/><path fill="#160059" d="M 222.65625 93.75 L 234.375 93.75 L 234.375 140.625 L 222.65625 140.625 Z M 222.65625 93.75 " fill-opacity="0.2" fill-rule="nonzero"/><path fill="#160059" d="M 140.625 105.46875 L 152.34375 105.46875 L 152.34375 128.90625 L 140.625 128.90625 Z M 140.625 105.46875 " fill-opacity="0.2" fill-rule="nonzero"/><path fill="#f4654a" d="M 175.78125 152.34375 L 199.21875 152.34375 L 199.21875 187.5 L 175.78125 187.5 Z M 175.78125 152.34375 " fill-opacity="1" fill-rule="nonzero"/><path fill="#160059" d="M 175.78125 164.0625 L 199.21875 164.0625 L 199.21875 175.78125 L 175.78125 175.78125 Z M 175.78125 164.0625 " fill-opacity="0.5" fill-rule="nonzero"/><path fill="#160059" d="M 152.34375 164.0625 L 175.78125 164.0625 L 175.78125 175.78125 L 152.34375 175.78125 Z M 152.34375 164.0625 " fill-opacity="1" fill-rule="nonzero"/><path fill="#160059" d="M 199.21875 164.0625 L 222.65625 164.0625 L 222.65625 175.78125 L 199.21875 175.78125 Z M 199.21875 164.0625 " fill-opacity="1" fill-rule="nonzero"/><path fill="#160059" d="M 117.1875 187.5 L 128.90625 187.5 L 128.90625 234.375 L 117.1875 234.375 Z M 117.1875 187.5 " fill-opacity="1" fill-rule="nonzero"/><path fill="#160059" d="M 105.46875 234.375 L 117.1875 234.375 L 117.1875 269.53125 L 105.46875 269.53125 Z M 105.46875 234.375 " fill-opacity="1" fill-rule="nonzero"/><path fill="#160059" d="M 246.09375 199.21875 L 257.8125 199.21875 L 257.8125 234.375 L 246.09375 234.375 Z M 246.09375 199.21875 " fill-opacity="0.5" fill-rule="nonzero"/><path fill="#160059" d="M 257.8125 234.375 L 269.53125 234.375 L 269.53125 269.53125 L 257.8125 269.53125 Z M 257.8125 234.375 " fill-opacity="0.5" fill-rule="nonzero"/><path fill="#160059" d="M 246.09375 281.25 L 269.53125 281.25 L 269.53125 292.96875 L 246.09375 292.96875 Z M 246.09375 281.25 " fill-opacity="1" fill-rule="nonzero"/><path fill="#160059" d="M 140.625 222.65625 L 152.34375 222.65625 L 152.34375 269.53125 L 140.625 269.53125 Z M 140.625 222.65625 " fill-opacity="1" fill-rule="nonzero"/><path fill="#160059" d="M 222.65625 222.65625 L 234.375 222.65625 L 234.375 269.53125 L 222.65625 269.53125 Z M 222.65625 222.65625 " fill-opacity="1" fill-rule="nonzero"/><path fill="#160059" d="M 128.90625 269.53125 L 152.34375 269.53125 L 152.34375 281.25 L 128.90625 281.25 Z M 128.90625 269.53125 " fill-opacity="0.2" fill-rule="nonzero"/><g clip-path="url(#aaba2c78c9)"><path fill="#160059" d="M 93.75 269.53125 L 105.46875 269.53125 L 105.46875 281.25 L 93.75 281.25 Z M 93.75 269.53125 " fill-opacity="1" fill-rule="nonzero"/></g><path fill="#160059" d="M 105.46875 281.25 L 128.90625 281.25 L 128.90625 292.96875 L 105.46875 292.96875 Z M 105.46875 281.25 " fill-opacity="1" fill-rule="nonzero"/><path fill="#160059" d="M 222.65625 269.53125 L 246.09375 269.53125 L 246.09375 281.25 L 222.65625 281.25 Z M 222.65625 269.53125 " fill-opacity="0.2" fill-rule="nonzero"/><g clip-path="url(#2d3df18916)"><path fill="#160059" d="M 269.53125 269.53125 L 281.25 269.53125 L 281.25 281.25 L 269.53125 281.25 Z M 269.53125 269.53125 " fill-opacity="0.5" fill-rule="nonzero"/></g><path fill="#160059" d="M 117.1875 281.25 L 128.90625 281.25 L 128.90625 304.6875 L 117.1875 304.6875 Z M 117.1875 281.25 " fill-opacity="1" fill-rule="nonzero"/><path fill="#160059" d="M 246.09375 281.25 L 257.8125 281.25 L 257.8125 304.6875 L 246.09375 304.6875 Z M 246.09375 281.25 " fill-opacity="1" fill-rule="nonzero"/><path fill="#160059" d="M 105.46875 304.6875 L 117.1875 304.6875 L 117.1875 328.125 L 105.46875 328.125 Z M 105.46875 304.6875 " fill-opacity="1" fill-rule="nonzero"/><path fill="#160059" d="M 117.1875 328.125 L 140.625 328.125 L 140.625 339.84375 L 117.1875 339.84375 Z M 117.1875 328.125 " fill-opacity="1" fill-rule="nonzero"/><path fill="#160059" d="M 128.90625 339.84375 L 152.34375 339.84375 L 152.34375 351.5625 L 128.90625 351.5625 Z M 128.90625 339.84375 " fill-opacity="1" fill-rule="nonzero"/><path fill="#160059" d="M 152.34375 351.5625 L 222.65625 351.5625 L 222.65625 363.28125 L 152.34375 363.28125 Z M 152.34375 351.5625 " fill-opacity="1" fill-rule="nonzero"/><path fill="#160059" d="M 222.65625 339.84375 L 246.09375 339.84375 L 246.09375 351.5625 L 222.65625 351.5625 Z M 222.65625 339.84375 " fill-opacity="1" fill-rule="nonzero"/><path fill="#160059" d="M 234.375 328.125 L 257.8125 328.125 L 257.8125 339.84375 L 234.375 339.84375 Z M 234.375 328.125 " fill-opacity="1" fill-rule="nonzero"/><path fill="#160059" d="M 257.8125 304.6875 L 269.53125 304.6875 L 269.53125 328.125 L 257.8125 328.125 Z M 257.8125 304.6875 " fill-opacity="1" fill-rule="nonzero"/><path fill="#160059" d="M 128.90625 222.65625 L 140.625 222.65625 L 140.625 281.25 L 128.90625 281.25 Z M 128.90625 222.65625 " fill-opacity="0.2" fill-rule="nonzero"/><path fill="#160059" d="M 140.625 175.78125 L 152.34375 175.78125 L 152.34375 234.375 L 140.625 234.375 Z M 140.625 175.78125 " fill-opacity="0.2" fill-rule="nonzero"/><path fill="#160059" d="M 222.65625 175.78125 L 234.375 175.78125 L 234.375 234.375 L 222.65625 234.375 Z M 222.65625 175.78125 " fill-opacity="0.2" fill-rule="nonzero"/><path fill="#160059" d="M 234.375 222.65625 L 246.09375 222.65625 L 246.09375 281.25 L 234.375 281.25 Z M 234.375 222.65625 " fill-opacity="0.2" fill-rule="nonzero"/><path fill="#160059" d="M 257.8125 269.53125 L 269.53125 269.53125 L 269.53125 292.96875 L 257.8125 292.96875 Z M 257.8125 269.53125 " fill-opacity="0.2" fill-rule="nonzero"/><path fill="#160059" d="M 105.46875 257.8125 L 117.1875 257.8125 L 117.1875 292.96875 L 105.46875 292.96875 Z M 105.46875 257.8125 " fill-opacity="0.2" fill-rule="nonzero"/><path fill="#160059" d="M 152.34375 175.78125 L 164.0625 175.78125 L 164.0625 187.5 L 152.34375 187.5 Z M 152.34375 175.78125 " fill-opacity="0.5" fill-rule="nonzero"/><path fill="#160059" d="M 210.9375 175.78125 L 222.65625 175.78125 L 222.65625 187.5 L 210.9375 187.5 Z M 210.9375 175.78125 " fill-opacity="0.5" fill-rule="nonzero"/><path fill="#160059" d="M 152.34375 117.1875 L 175.78125 117.1875 L 175.78125 128.90625 L 152.34375 128.90625 Z M 152.34375 117.1875 " fill-opacity="1" fill-rule="nonzero"/><path fill="#160059" d="M 199.21875 117.1875 L 222.65625 117.1875 L 222.65625 128.90625 L 199.21875 128.90625 Z M 199.21875 117.1875 " fill-opacity="1" fill-rule="nonzero"/><path fill="#e80059" d="M 164.0625 128.90625 L 175.78125 128.90625 L 175.78125 140.625 L 164.0625 140.625 Z M 164.0625 128.90625 " fill-opacity="1" fill-rule="nonzero"/><path fill="#e80059" d="M 199.21875 128.90625 L 210.9375 128.90625 L 210.9375 140.625 L 199.21875 140.625 Z M 199.21875 128.90625 " fill-opacity="1" fill-rule="nonzero"/><path fill="#160059" d="M 152.34375 281.25 L 164.0625 281.25 L 164.0625 292.96875 L 152.34375 292.96875 Z M 152.34375 281.25 " fill-opacity="0.2" fill-rule="nonzero"/><path fill="#160059" d="M 210.9375 281.25 L 222.65625 281.25 L 222.65625 292.96875 L 210.9375 292.96875 Z M 210.9375 281.25 " fill-opacity="0.2" fill-rule="nonzero"/><path fill="#160059" d="M 164.0625 292.96875 L 210.9375 292.96875 L 210.9375 304.6875 L 164.0625 304.6875 Z M 164.0625 292.96875 " fill-opacity="0.2" fill-rule="nonzero"/><path fill="#160059" d="M 128.90625 304.6875 L 152.34375 304.6875 L 152.34375 316.40625 L 128.90625 316.40625 Z M 128.90625 304.6875 " fill-opacity="0.2" fill-rule="nonzero"/><path fill="#160059" d="M 222.65625 304.6875 L 246.09375 304.6875 L 246.09375 316.40625 L 222.65625 316.40625 Z M 222.65625 304.6875 " fill-opacity="0.2" fill-rule="nonzero"/><path fill="#160059" d="M 152.34375 316.40625 L 164.0625 316.40625 L 164.0625 328.125 L 152.34375 328.125 Z M 152.34375 316.40625 " fill-opacity="0.2" fill-rule="nonzero"/><path fill="#160059" d="M 210.9375 316.40625 L 222.65625 316.40625 L 222.65625 328.125 L 210.9375 328.125 Z M 210.9375 316.40625 " fill-opacity="0.2" fill-rule="nonzero"/><path fill="#160059" d="M 164.0625 328.125 L 210.9375 328.125 L 210.9375 339.84375 L 164.0625 339.84375 Z M 164.0625 328.125 " fill-opacity="0.2" fill-rule="nonzero"/><path fill="#160059" d="M 140.625 363.28125 L 175.78125 363.28125 L 175.78125 375 L 140.625 375 Z M 140.625 363.28125 " fill-opacity="1" fill-rule="nonzero"/><path fill="#160059" d="M 128.90625 328.125 L 140.625 328.125 L 140.625 363.28125 L 128.90625 363.28125 Z M 128.90625 328.125 " fill-opacity="1" fill-rule="nonzero"/><path fill="#160059" d="M 234.375 328.125 L 246.09375 328.125 L 246.09375 363.28125 L 234.375 363.28125 Z M 234.375 328.125 " fill-opacity="1" fill-rule="nonzero"/><path fill="#160059" d="M 199.21875 363.28125 L 234.375 363.28125 L 234.375 375 L 199.21875 375 Z M 199.21875 363.28125 " fill-opacity="1" fill-rule="nonzero"/><path fill="#e80059" d="M 152.34375 292.96875 L 164.0625 292.96875 L 164.0625 304.6875 L 152.34375 304.6875 Z M 152.34375 292.96875 " fill-opacity="0.5" fill-rule="nonzero"/><path fill="#e80059" d="M 210.9375 292.96875 L 222.65625 292.96875 L 222.65625 304.6875 L 210.9375 304.6875 Z M 210.9375 292.96875 " fill-opacity="0.5" fill-rule="nonzero"/><path fill="#e80059" d="M 140.625 316.40625 L 152.34375 316.40625 L 152.34375 328.125 L 140.625 328.125 Z M 140.625 316.40625 " fill-opacity="0.5" fill-rule="nonzero"/><path fill="#e80059" d="M 222.65625 316.40625 L 234.375 316.40625 L 234.375 328.125 L 222.65625 328.125 Z M 222.65625 316.40625 " fill-opacity="0.5" fill-rule="nonzero"/><path fill="#e80059" d="M 164.0625 269.53125 L 175.78125 269.53125 L 175.78125 281.25 L 164.0625 281.25 Z M 164.0625 269.53125 " fill-opacity="0.5" fill-rule="nonzero"/><path fill="#e80059" d="M 199.21875 269.53125 L 210.9375 269.53125 L 210.9375 281.25 L 199.21875 281.25 Z M 199.21875 269.53125 " fill-opacity="0.5" fill-rule="nonzero"/><path fill="#e80059" d="M 175.78125 281.25 L 199.21875 281.25 L 199.21875 292.96875 L 175.78125 292.96875 Z M 175.78125 281.25 " fill-opacity="0.5" fill-rule="nonzero"/><path fill="#e80059" d="M 175.78125 316.40625 L 199.21875 316.40625 L 199.21875 328.125 L 175.78125 328.125 Z M 175.78125 316.40625 " fill-opacity="0.5" fill-rule="nonzero"/><path fill="#e80059" d="M 175.78125 339.84375 L 199.21875 339.84375 L 199.21875 351.5625 L 175.78125 351.5625 Z M 175.78125 339.84375 " fill-opacity="0.5" fill-rule="nonzero"/><path fill="#e80059" d="M 234.375 281.25 L 246.09375 281.25 L 246.09375 292.96875 L 234.375 292.96875 Z M 234.375 281.25 " fill-opacity="1" fill-rule="nonzero"/><path fill="#e80059" d="M 246.09375 316.40625 L 257.8125 316.40625 L 257.8125 328.125 L 246.09375 328.125 Z M 246.09375 316.40625 " fill-opacity="1" fill-rule="nonzero"/><path fill="#e80059" d="M 117.1875 316.40625 L 128.90625 316.40625 L 128.90625 328.125 L 117.1875 328.125 Z M 117.1875 316.40625 " fill-opacity="1" fill-rule="nonzero"/><path fill="#e80059" d="M 128.90625 281.25 L 140.625 281.25 L 140.625 292.96875 L 128.90625 292.96875 Z M 128.90625 281.25 " fill-opacity="1" fill-rule="nonzero"/><path fill="#160059" d="M 152.34375 257.8125 L 222.65625 257.8125 L 222.65625 269.53125 L 152.34375 269.53125 Z M 152.34375 257.8125 " fill-opacity="0.2" fill-rule="nonzero"/><path fill="#160059" d="M 164.0625 222.65625 L 210.9375 222.65625 L 210.9375 234.375 L 164.0625 234.375 Z M 164.0625 222.65625 " fill-opacity="0.2" fill-rule="nonzero"/><path fill="#e80059" d="M 246.09375 23.4375 L 246.09375 11.71875 L 234.375 11.71875 L 234.375 0 L 222.65625 0 L 222.65625 23.4375 L 234.375 23.4375 L 234.375 35.15625 L 246.09375 35.15625 L 246.09375 46.875 L 269.53125 46.875 L 269.53125 23.4375 Z M 246.09375 23.4375 " fill-opacity="1" fill-rule="nonzero"/><path fill="#160059" d="M 222.65625 11.71875 L 234.375 11.71875 L 234.375 23.4375 L 222.65625 23.4375 Z M 222.65625 11.71875 " fill-opacity="1" fill-rule="nonzero"/><path fill="#160059" d="M 257.8125 35.15625 L 269.53125 35.15625 L 269.53125 46.875 L 257.8125 46.875 Z M 257.8125 35.15625 " fill-opacity="0.5" fill-rule="nonzero"/><path fill="#160059" d="M 234.375 23.4375 L 246.09375 23.4375 L 246.09375 35.15625 L 234.375 35.15625 Z M 234.375 23.4375 " fill-opacity="1" fill-rule="nonzero"/><path fill="#160059" d="M 246.09375 35.15625 L 257.8125 35.15625 L 257.8125 46.875 L 246.09375 46.875 Z M 246.09375 35.15625 " fill-opacity="1" fill-rule="nonzero"/><path fill="#ffb600" d="M 234.375 11.71875 L 246.09375 11.71875 L 246.09375 23.4375 L 234.375 23.4375 Z M 234.375 11.71875 " fill-opacity="1" fill-rule="nonzero"/><path fill="#ffb600" d="M 246.09375 23.4375 L 257.8125 23.4375 L 257.8125 35.15625 L 246.09375 35.15625 Z M 246.09375 23.4375 " fill-opacity="1" fill-rule="nonzero"/></svg>